<svg xmlns="http://www.w3.org/2000/svg" viewBox="0 0 2000 2000"><defs><style>.cls-1{fill:#fff;}</style></defs><g id="Layer_2" data-name="Layer 2"><g id="Layer_1-2" data-name="Layer 1"><path class="cls-1" d="M0,1121V0H2000V931a11,11,0,0,1-2-2.73c-2.67-8-8.24-13.6-14.72-18.45-22.28-16.65-46.7-29.5-72.35-40-18.15-7.42-36.54-14.26-54.91-21.11-21.19-7.91-42.41-15.76-63.76-23.24-22.76-8-45.66-15.55-68.55-23.14-34.09-11.3-68.12-22.78-102.38-33.57-33.94-10.69-68-20.82-102.21-30.79q-46.69-13.63-93.66-26.37c-35-9.55-70-18.72-105.08-28-33.27-8.84-66.49-17.9-99.85-26.41-31.59-8.07-63.31-15.63-95-23.28q-46.35-11.19-92.75-22.11C986.9,600.89,941.09,590,895.2,579.3c-36.64-8.49-73.3-16.94-110.08-24.77-31.91-6.79-64-12.9-96-18.92C660,530.13,630.76,525.26,601.61,520c-34.22-6.22-68.38-12.81-102.63-18.88q-47.69-8.44-95.52-16.07c-30.07-4.82-60.15-9.83-90.37-13.55-33-4.08-66.16-7.65-99.35-9.82C179.55,459.39,145.23,459,111,458c-18.77-.56-33.21,7.85-41.68,24.18-4.88,9.4-7.44,20.21-9.79,30.67-4.3,19.15-7.7,38.5-11.42,57.78-4.55,23.53-8.93,47.1-13.6,70.61-4.45,22.36-9.19,44.66-13.77,67-3.24,15.81-6.92,31.55-9.51,47.47-2.49,15.35,3.5,27.93,16,36.84,12.33,8.78,25,17.08,37.89,25.06C98.34,838.22,135.32,850,172,862.46c12.53,4.25,25,8.73,38.51,13.47-2,1.73-3.09,3.07-4.52,4-22.49,13.91-45.34,27.28-67.47,41.73-37.67,24.6-71,54-97.33,90.87-22.28,31.19-37.15,65.27-39.34,104.12C1.8,1118.09.65,1119.51,0,1121Z"/><path class="cls-1" d="M2000,946V2000H0V1137c.66,1.61,1.81,3.19,1.91,4.83,1.73,29,10.71,55.78,24.54,81,22.12,40.39,53.35,73,88.6,101.94,44.12,36.25,94.65,61.67,146.1,85.43,20.82,9.62,41.76,19,62.73,28.29,13.19,5.87,26.36,11.87,39.85,17,12.09,4.61,24.82,7.61,36.9,12.27,34.78,13.42,71,21.32,107.34,28.82,18.08,3.73,36.14,7.69,54.34,10.79,34.12,5.82,68.24,11.89,102.56,16.36,34.49,4.48,69.19,7.33,103.83,10.53,19.7,1.82,39.46,3.1,59.22,4.25,15.28.89,30.6,1.19,45.9,1.77,27.88,1,55.76,2.69,83.66,3,24.75.3,49.55-.29,74.28-1.47q54.59-2.61,109.1-6.73c26.88-2,53.68-5.14,80.49-7.92,10.1-1,19.55-1,28.55,5.36,4.18,2.93,10.24,3.66,15.58,4.33,11.12,1.4,21.28-2.68,31.39-6.65,6.68-2.61,13.65-5.74,20.64-1.7,6.55,3.8,13.28,3.5,20.27,2.78,12.83-1.33,25.69-1.8,38,2.82,8,3,16,2.44,24.11,1.57,11.89-1.27,23.76-3,35.68-3.5,15.13-.7,30.31-.4,45.47-.61,11.17-.16,20.29-6.31,23.31-17,3.12-11,5.44-22.3,7.51-33.58.91-5,2.58-8,8-8.28a23.8,23.8,0,0,0,6.84-1.35c30.59-11.22,61.23-22.29,91.68-33.87a626.29,626.29,0,0,0,114.17-57.8c47.3-30.17,89.33-66.15,123-111.4,5.06-6.81,10-13.77,15.36-20.31,6-7.31,14-9.73,23.32-7.89,3.26.64,6.56,1.13,9.85,1.63,6.62,1,11.59-1.24,16.32-6.25,11.9-12.59,16-28.47,20.25-44.42,4.34-16.4,8.76-32.78,13-49.22,5.68-22.06,11.41-44.12,16.75-66.27,4.68-19.41,9-38.92,13.22-58.43,4-18.37,7.73-36.82,11.78-55.18C1996.5,956.57,1998.41,951.3,2000,946Z"/><path d="M2000,946c-1.59,5.34-3.5,10.61-4.7,16-4,18.36-7.75,36.81-11.78,55.18-4.27,19.51-8.54,39-13.22,58.43-5.34,22.15-11.07,44.21-16.75,66.27-4.23,16.44-8.65,32.82-13,49.22-4.22,16-8.35,31.83-20.25,44.42-4.73,5-9.7,7.27-16.32,6.25-3.29-.5-6.59-1-9.85-1.63-9.31-1.84-17.29.58-23.32,7.89-5.39,6.54-10.3,13.5-15.36,20.31-33.64,45.25-75.67,81.23-123,111.4a626.29,626.29,0,0,1-114.17,57.8c-30.45,11.58-61.09,22.65-91.68,33.87a23.8,23.8,0,0,1-6.84,1.35c-5.38.28-7,3.3-8,8.28-2.07,11.28-4.39,22.56-7.51,33.58-3,10.67-12.14,16.82-23.31,17-15.16.21-30.34-.09-45.47.61-11.92.55-23.79,2.23-35.68,3.5-8.14.87-16.09,1.45-24.11-1.57-12.29-4.62-25.15-4.15-38-2.82-7,.72-13.72,1-20.27-2.78-7-4-14-.91-20.64,1.7-10.11,4-20.27,8-31.39,6.65-5.34-.67-11.4-1.4-15.58-4.33-9-6.31-18.45-6.41-28.55-5.36-26.81,2.78-53.61,5.89-80.49,7.92q-54.49,4.13-109.1,6.73c-24.73,1.18-49.53,1.77-74.28,1.47-27.9-.33-55.78-2-83.66-3-15.3-.58-30.62-.88-45.9-1.77-19.76-1.15-39.52-2.43-59.22-4.25-34.64-3.2-69.34-6-103.83-10.53-34.32-4.47-68.44-10.54-102.56-16.36-18.2-3.1-36.26-7.06-54.34-10.79-36.34-7.5-72.56-15.4-107.34-28.82-12.08-4.66-24.81-7.66-36.9-12.27-13.49-5.15-26.66-11.15-39.85-17-21-9.31-41.91-18.67-62.73-28.29-51.45-23.76-102-49.18-146.1-85.43-35.25-29-66.48-61.55-88.6-101.94-13.83-25.25-22.81-52-24.54-81-.1-1.64-1.25-3.22-1.91-4.83v-16c.65-1.46,1.8-2.88,1.88-4.37,2.19-38.85,17.06-72.93,39.34-104.12,26.3-36.83,59.66-66.27,97.33-90.87,22.13-14.45,45-27.82,67.47-41.73,1.43-.88,2.56-2.22,4.52-4-13.52-4.74-26-9.22-38.51-13.47C135.32,850,98.34,838.22,65.1,817.6c-12.86-8-25.56-16.28-37.89-25.06-12.52-8.91-18.51-21.49-16-36.84,2.59-15.92,6.27-31.66,9.51-47.47,4.58-22.34,9.32-44.64,13.77-67,4.67-23.51,9.05-47.08,13.6-70.61,3.72-19.28,7.12-38.63,11.42-57.78,2.35-10.46,4.91-21.27,9.79-30.67C77.75,465.84,92.19,457.43,111,458c34.27,1,68.59,1.4,102.78,3.65,33.19,2.17,66.33,5.74,99.35,9.82,30.22,3.72,60.3,8.73,90.37,13.55q47.82,7.65,95.52,16.07c34.25,6.07,68.41,12.66,102.63,18.88,29.15,5.3,58.37,10.17,87.48,15.65,32.06,6,64.12,12.13,96,18.92,36.78,7.83,73.44,16.28,110.08,24.77,45.89,10.65,91.7,21.59,137.54,32.44q46.4,11,92.75,22.11c31.7,7.65,63.42,15.21,95,23.28,33.36,8.51,66.58,17.57,99.85,26.41,35,9.31,70.11,18.48,105.08,28q46.93,12.81,93.66,26.37c34.16,10,68.27,20.1,102.21,30.79,34.26,10.79,68.29,22.27,102.38,33.57,22.89,7.59,45.79,15.18,68.55,23.14,21.35,7.48,42.57,15.33,63.76,23.24,18.37,6.85,36.76,13.69,54.91,21.11,25.65,10.49,50.07,23.34,72.35,40,6.48,4.85,12,10.49,14.72,18.45a11,11,0,0,0,2,2.73Zm-402.8-30c0-.39.06-.78.08-1.17a51.5,51.5,0,0,1,7,0c15.61,2.23,31.18,4.71,46.8,6.85,14.8,2,29.65,3.71,44.47,5.61,6.93.89,13.83,1.91,20.74,2.89,9.37,1.34,18.72,2.87,28.12,4,10.56,1.26,21.17,2.12,31.75,3.21,19.65,2,39.28,4.28,59,6,13.89,1.22,27.85,1.83,41.79,2.5a761.64,761.64,0,0,0,92.76-1.66c3.4-.25,4.06-1.84,2.78-4.59-3.79-8.14-8.71-15.33-16.79-19.87-17.8-10-35.48-20.21-53.42-30-14.87-8.07-29.77-16.18-45.15-23.18-13.69-6.23-28-11.14-42.15-16.29-12.6-4.57-25.37-8.67-38.06-13q-15.75-5.33-31.52-10.63-16.94-5.7-33.88-11.37c-11.14-3.73-22.29-7.42-33.43-11.15-11-3.68-21.95-7.42-32.95-11.07-11.15-3.7-22.32-7.33-33.48-11-11.63-3.82-23.24-7.67-34.87-11.44q-17-5.52-34.06-10.88c-12.14-3.85-24.26-7.74-36.45-11.43-9.82-3-19.71-5.72-29.59-8.5-10.5-3-21-5.89-31.55-8.72-8-2.14-16-4.06-24-6.14-11.22-2.92-22.43-5.91-33.64-8.85-11-2.91-22.1-5.84-33.16-8.7-11.38-2.94-22.78-5.79-34.17-8.71q-11.3-2.88-22.58-5.84c-11-2.92-22-6-33.11-8.81-11.23-2.87-22.52-5.46-33.77-8.27-12.2-3.06-24.37-6.22-36.55-9.36-8.18-2.1-16.34-4.3-24.52-6.38-7.87-2-15.77-3.9-23.64-5.87q-12.78-3.18-25.54-6.39c-7.88-2-15.76-4-23.64-5.89q-13.26-3.26-26.53-6.47-12.54-3-25.1-6-13.05-3.13-26.08-6.3c-8.21-2-16.4-4.06-24.62-6-9-2.13-18.07-4.13-27.1-6.25-12.27-2.88-24.51-5.85-36.78-8.72-8.57-2-17.16-3.88-25.73-5.85-9.52-2.19-19-4.44-28.55-6.63-8.56-2-17.12-3.89-25.69-5.82-9.69-2.18-19.39-4.39-29.1-6.51-9.23-2-18.49-3.9-27.73-5.87-10-2.15-20.06-4.4-30.12-6.49-9.73-2-19.5-3.83-29.24-5.83-10.23-2.09-20.42-4.35-30.65-6.41-11.37-2.28-22.77-4.43-34.15-6.64-10.1-2-20.18-4-30.3-5.81-10.93-2-21.92-3.65-32.84-5.67-11.08-2.06-22.08-4.58-33.18-6.54-16-2.84-32.1-5.27-48.12-8-17.67-3-35.31-6.27-53-9.35-5.72-1-11.47-1.78-17.21-2.61-13.48-1.94-27-3.78-40.45-5.79-14.28-2.12-28.51-4.62-42.82-6.54-15.64-2.1-31.36-3.71-47-5.59-7.25-.87-14.49-1.9-21.73-2.83-10.71-1.39-21.41-2.86-32.14-4.09-10.4-1.18-20.86-2-31.26-3.16-16.5-1.91-32.93-4.5-49.46-5.92a218.86,218.86,0,0,0-51.26,1.16A156.85,156.85,0,0,0,96.18,488c-2.72,1.25-3,2.73-.82,4.34,6.1,4.61,11.94,9.8,18.63,13.36,30.16,16,60.05,32.63,91.88,45.31,23.69,9.43,47.18,19.37,71,28.57q34.51,13.38,69.45,25.65c19.36,6.79,39,12.87,58.51,19.09,17.2,5.47,34.53,10.53,51.69,16.12,4.8,1.56,9.26,4.25,13.74,6.68.81.44.94,2.13,1.39,3.25-1.17.41-2.43,1.32-3.5,1.14-1.75-.3-3.34-1.44-5.08-2C440.9,642.65,418.7,636,396.63,629Q364,618.53,331.56,607.46c-23.64-8.06-47.35-16-70.68-24.85-26.6-10.14-52.9-21.07-79.15-32.09-32.79-13.76-64.2-30.31-94.84-48.32-3.49-2.05-5.42-1.12-6.84,1.68C75.63,512.6,69.78,521,67.6,530.33c-4.55,19.35-7.31,39.14-10.41,58.82-2.23,14.1-3.71,28.31-5.7,42.45C49.41,646.4,46.81,661.13,45,676c-2.18,17.65-4.45,35.33-5.37,53.06a140.3,140.3,0,0,0,2.25,33.62c4.25,21.94,18.71,36.14,38.38,45.42,13.63,6.43,27.27,12.87,41.11,18.82q25.33,10.88,51,20.91c12.47,4.89,25.13,9.34,37.78,13.77,10.62,3.73,21.35,7.17,32,10.69,14,4.6,28,9.07,42,13.76,10.52,3.52,20.93,7.37,31.43,11q19.74,6.76,39.55,13.33c14.44,4.79,28.9,9.56,43.4,14.18,9.13,2.92,18.36,5.53,27.55,8.28,10,3,20,6,30,8.94s19.76,5.55,29.62,8.38c10.18,2.93,20.32,6,30.5,8.91s20.38,5.76,30.58,8.64q15.76,4.46,31.53,8.89c10,2.81,20.11,5.57,30.15,8.4,10.19,2.89,20.34,5.91,30.54,8.75,10.37,2.88,20.77,5.61,31.16,8.42q16.77,4.54,33.54,9.1,11.5,3.11,23,6.16c10.89,2.87,21.77,5.8,32.7,8.56,11.56,2.91,23.18,5.64,34.76,8.48,12.06,3,24.1,6,36.16,8.95,8.37,2,16.77,4,25.15,5.93,9.19,2.18,18.37,4.39,27.56,6.56,8.39,2,16.79,3.88,25.18,5.86,8.85,2.09,17.68,4.31,26.55,6.35,8.56,2,17.18,3.66,25.72,5.68,12.42,2.94,24.77,6.18,37.19,9.07,12.26,2.86,24.6,5.34,36.86,8.19,12.42,2.88,24.74,6.21,37.19,9,17,3.77,34,7.21,51.08,10.77q29.43,6.16,58.89,12.29l14.6,3c10.54,2.19,21.08,4.43,31.63,6.55,10.25,2.06,20.53,4,30.78,6,10.56,2.1,21.1,4.3,31.67,6.37,9.91,2,19.86,3.74,29.78,5.69,11.06,2.17,22.09,4.49,33.15,6.66,10.59,2.08,21.21,4,31.8,6.08,10.23,2,20.42,4.29,30.66,6.21,10.93,2.05,21.93,3.7,32.85,5.76s21.75,4.53,32.67,6.58c13.21,2.47,26.46,4.71,39.71,7,6.21,1.07,12.45,2.06,18.68,3.07q18.43,3,36.87,6c12.93,2.11,25.86,4.31,38.81,6.33,7.87,1.24,15.8,2.14,23.67,3.35,13.62,2.11,27.18,4.61,40.83,6.46,15.81,2.15,31.67,3.83,47.52,5.6,19.15,2.14,38.27,4.8,57.48,6.07,26,1.72,52.17,2.22,78.25,3.47,15.45.74,29.2-3.89,41.52-12.76,11.81-8.51,21.87-18.32,24-34,1-7.18,3.44-14.16,5.26-21.22,3-11.38,6-22.74,8.86-34.15,2.88-11.58,5.51-23.22,8.35-34.81,2.92-11.9,6.09-23.73,8.93-35.65q4.32-18.12,8.18-36.36c2.47-11.67,4.69-23.39,6.93-35.1,1.31-6.86,2.26-13.78,3.75-20.59,1.13-5.15,1.07-5.46-4-5.57-25.62-.55-51.24-.85-76.84-1.82-19.77-.75-39.53-2.11-59.25-3.69-11.91-.95-23.74-2.86-35.62-4.28-15.66-1.88-31.38-3.37-47-5.66-18.39-2.69-36.68-6.08-55-9.12-16.69-2.77-33.42-5.36-50.09-8.25-17.45-3-34.85-6.29-52.26-9.49A6.55,6.55,0,0,1,1597.2,915.93ZM847.33,1090.6l-1.39-.24a18.11,18.11,0,0,0-1.41,2.91c-2,7-3.94,14.07-5.82,21.13-2.82,10.57-5.83,21.09-8.27,31.75-2.25,9.84-4.1,19.79-5.67,29.77-1.73,11-3.29,22-4.27,33-1.4,15.88-1.22,32-3.51,47.68-2.83,19.44-1.61,38.06,5.66,56.25,1.78,4.47,3.27,8.8.55,13.32-.59,1-1.8,2.4-2.62,2.34-4.38-.35-8.6-1.2-10.34-6.21q-6.19-17.8-12.55-35.56c-1.49-4.16-3.5-8-8.23-9.37s-6.78.26-6.38,5c1.09,12.78,2.17,25.53,10.78,36.16,2.64,3.26.61,8.52-3,9.3a10.52,10.52,0,0,1-12.75-8.26q-7.35-31.71-14.84-63.39c-.33-1.37-2.09-3.68-2.45-3.54-1.72.63-3.93,1.63-4.58,3.1a31.23,31.23,0,0,0-2.46,9.6c-1.78,19.48.07,38.44,8.3,56.5,8.66,19,18,37.68,19.55,59.18,1.14,16.34,4.09,32.52,2.31,49-1.28,12-4.48,23.12-10.81,33.3-3.34,5.38-8,8.94-14.82,8.27q-8.4-.83-16.79-1.73c-5.55-.6-9.11-3.7-10.78-9-1.81-5.68-3.44-11.43-5.24-17.12-6.22-19.59-10.46-39.45-9.38-60.22.94-18.14,5.38-35,16-50a12.84,12.84,0,0,0,2-7c0-2.88-1.87-4.53-4.65-2.49-9.41,6.91-18.36,14.08-23.75,25.07-6.18,12.57-7.34,25.71-6.94,39.31.19,6.54-2.44,9.61-7.89,10-5.64.36-8.63-2.56-9.34-9.22-2-18.24,1.91-35.07,12.66-50.06,2.21-3.09,2.43-5.55.89-9.12-3.66-8.48-7-17.15-9.8-25.94-1.24-3.86-.34-8.4-1.57-12.27-1-3.18-3.7-5.82-5.65-8.7-2.13,3-4.32,5.85-6.33,8.88-.38.58-.05,1.63-.08,2.46-.2,6.16-.47,12.32-.59,18.48-.16,8.34-.14,16.77,4.25,24.22,2.71,4.58,1.33,8.31-1.31,12-.58.81-2.46,1.59-3.2,1.24-3.95-1.85-8-4-8.73-8.86-1.78-12.33-4.4-24.69-4.51-37.06-.11-12.84,1.92-25.77,3.78-38.55a140.51,140.51,0,0,1,6-26.1c4.72-13.43,10.64-26.43,15.84-39.69.58-1.49-.23-3.52-.4-5.29-1.33,1.07-3.29,1.86-3.9,3.24-6.45,14.74-13.07,29.41-18.86,44.41-4.9,12.71-8.66,25.9-8.17,39.75.35,9.79,1.16,19.58,2.18,29.33,1.72,16.54,3.92,33,5.65,49.55,1.63,15.69,3.54,31.4,4.21,47.14,1.18,27.43,1.46,54.89,2.2,82.34.18,6.67,5,12.63,11,13.56,6.73,1.06,13.46,2.08,20.23,2.79,15.86,1.65,31.72,3.24,47.61,4.59,18.53,1.58,37.1,2.9,55.65,4.31,22,1.67,44.06,3.53,66.12,4.88q20.93,1.28,41.93,1.26c43.66,0,87.33,0,131-.49,28-.35,55.88-1.68,83.82-2.54,4.47-.14,6.31-2.16,6.62-6.82.66-10.11,2.1-20.17,3-30.27,1.32-15,3-30.09,3.47-45.17.39-12.18-4.12-22.85-12.64-32-15.41-16.57-30.64-33.33-45.4-50.48-8-9.26-16.54-18.14-21.16-30-2.12-5.44-6.52-10-9.88-15l-1.9.78c.42,2.24.43,4.67,1.34,6.69,1.91,4.23,4.31,8.23,6.47,12.34,10,19.22,20.52,38.07,37.18,52.72,2.52,2.21,3.18,6.71,4.25,10.28.2.68-2,3-2.7,2.85-4.29-1-9-1.67-12.55-4-8.94-6.06-17.28-13-25.91-19.51-.7-.53-1.74-.61-3.79-1.28.8,3.5,1.32,6.16,2,8.77,2,7.52,5.7,15,5.89,22.53.33,13.89-1.15,27.85-2.42,41.73-.21,2.27-2.86,5.14-5.08,6.1-1.37.59-4.46-1.5-6.11-3.09-4.51-4.34-3.48-10.13-3.18-15.57a83.54,83.54,0,0,0-4.29-31.89c-2.77-8.15-5.7-16.26-8.4-24.44-4.2-12.72-10.76-23.58-23.23-29.8a127.73,127.73,0,0,0-12.26-5.45c-14.48-5.41-26.22-1.62-33.61,11.67-4,7.21-6.42,15.3-10.22,22.65-2.3,4.44-5.8,8.28-8.95,12.24a3.44,3.44,0,0,1-3,.81c-2.48-.81-5.63-9.22-4.48-11.76,5.22-11.63,10.43-23.27,15.82-34.82,2.74-5.86,2.22-10.83-1.78-16.15-8.57-11.43-17.14-22.91-24.79-35-16.56-26.12-21.29-56.15-27.06-85.77-1.83-9.44-3.62-18.88-5.63-28.28-.36-1.67-1.7-3.12-3.07-5.52-.74,1.77-1.18,2.33-1.19,2.91-.25,12.4-.93,24.82-.56,37.21.66,21.77,1.93,43.52,3,65.27,1.06,21.2,5.85,41.09,20.47,57.49,1.21,1.36,2.89,2.83,3.12,4.43.48,3.34.14,6.8.14,10.21-2.64-.13-5.41.19-7.91-.47-6.77-1.77-10.1-7.63-13-13.07-5.93-11.12-11.11-22.63-16.45-34-9.92-21.22-18.48-43.07-23-66-3.85-19.66-5.81-39.76-7.43-59.76-1.19-14.75-.59-29.64-.59-44.47a74.3,74.3,0,0,1,1.18-10.89c1.17-7.72,2.52-15.42,3.68-23.14A20,20,0,0,0,847.33,1090.6ZM348.38,1242.89l1.19.3c0,2.5-.07,5,0,7.5.15,4.84,3.81,7.87,8.58,7.3,17-2,33.93-4.38,51-5.88,19.7-1.72,39.36-3.37,58.68-7.89,6.68-1.56,10.76-5.18,10.27-11.92-.87-11.91-2.53-23.76-3.61-35.66-.54-5.93-2-12.33-.45-17.8,3.51-12.55,8.66-24.65,13-37,3.83-10.77,7.84-21.49,11.18-32.42,3.82-12.5,7.36-25.11,10.34-37.83,2.75-11.76,4.69-23.72,6.8-35.62,1.27-7.19,2.19-14.45,3.25-21.67,1.55-10.5,3.37-21,4.52-31.52.82-7.4-2.52-11.5-9.72-13.52-14.34-4-28.56-8.62-43.07-11.85-12.66-2.81-15.45-.8-14.52,12,.16,2.1,1.13,4.12,1.58,6.21,1.08,5,2.81,10,3,15.09.39,12.08-6.16,21.34-13.41,30.26-10,12.27-20.19,24.38-29.32,37.25-8,11.34-13.3,24.14-13.56,38.45-.21,11,3.93,20.71,8.28,30.46a61.49,61.49,0,0,1,3.42,11.8,3.86,3.86,0,0,1-1.54,3.24c-3.93,2.31-11.36-.1-12.66-4.47-3.43-11.56-7.79-23.07-9.3-34.92-2.89-22.76,4.55-43.42,17.71-61.73,7.45-10.37,16.83-19.33,24.5-29.56,4-5.29,8.07-11.78,8.63-18,1-10.72,2-21.9-2.05-32.52-2.08-5.44-3.51-11-10.75-12.29-5.65-1-11-3.55-16.56-5.15-16.38-4.71-32.81-9.27-49.2-13.93-3.37-1-6.05.09-6.34,3.49a134.65,134.65,0,0,0-.24,18.19c.43,8.13,4.63,15.93,1.75,24.42-1.49,4.39-3.92,3.51-6.41,1.67-7.07-5.2-11.17-20.9-7.74-28.84,4-9.24,2-19.39-5.73-25.84-8.7-7.29-19.37-8.21-30.08-7.91-1.7,0-4.54,3.26-4.74,5.21a58.33,58.33,0,0,0,.48,15.39c2.79,16.35,6.06,32.62,9.07,48.93q1.53,8.33,2.64,16.72c1.06,8.22-2.49,15.54-4.6,23.2-4.74,17.23-9.47,34.48-13.4,51.91a104.33,104.33,0,0,0,3.84,58.9c6.48,18.11,17.49,33.49,30.92,47.18,4.9,5,10,9.86,14.39,15.26,5.95,7.25,7.61,15.66,5.13,24.86C351.66,1229.13,350.08,1236,348.38,1242.89Zm18.94,158.26c14.75-1.07,29.51-2,44.23-3.27,7.74-.69,15.68-1.22,23.05-3.42a277.18,277.18,0,0,0,32.06-12.11c24-10.52,47.84-21.23,71.51-32.4,10.32-4.87,20-11.06,30-16.63,5.38-3,8.09-7.36,6.63-13.61-1.85-7.91-4-15.75-5.76-23.68-2.32-10.68-4.6-21.38-6.45-32.14-1.51-8.83-2.08-17.82-3.59-26.65-1.21-7.07-2-7.08-8.38-4-6.12,2.91-12.25,6-18.69,8.06-15,4.76-30.2,8.65-45.18,13.39-18.93,6-38.38,9.1-58,11.21-18.32,2-36.7,3.37-55,5.31-15.85,1.68-31.65,3.82-47.48,5.64-12.37,1.42-24.73,3.34-37.15,3.83-21.1.83-42.23.65-63.35,1.1-1.1,0-3.1,2-3.05,3,.23,5,.93,9.92,1.63,14.85,1.19,8.37,2.37,16.76,3.82,25.09,1.18,6.8,1.54,14,7.28,19.09,7,6.17,9.34,14.25,10,23.14a34.56,34.56,0,0,0,1.18,8.29c2.26,7,7.16,11,14.14,13.52,12.18,4.35,24.21,8.28,37.3,4.17,4.24-1.33,8.66-3.31,12.9-3.1,5.87.3,11.74,2.06,17.44,3.78C341.08,1397.45,353.84,1401,367.32,1401.15ZM606,1491.59l.84-1.32c-.82-1.58-1.52-3.23-2.48-4.72q-12.1-18.61-24.28-37.17c-4-6.18-7.48-12.88-4-20.1,4.74-9.8,3.71-19.08.37-28.88-4.21-12.36-7.89-24.91-11.55-37.45-2.19-7.51-6.35-9.39-13.95-5.78-10.18,4.84-20.41,9.57-30.55,14.49-15.06,7.32-30.54,13.84-43.91,24.28-10.46,8.17-21.88,14.17-35.63,14.74-19.44.8-38.85,2.35-58.29,2.85-20.15.52-40.32.16-60.49.22a40.92,40.92,0,0,0-4.51.5c-.05.58-.11,1.16-.16,1.75C410.36,1452.81,507.2,1475.93,606,1491.59ZM1175.66,1360l1-.13a7.57,7.57,0,0,0,.28-2.37q-2.81-13.12-5.76-26.24c-2.05-9-4.19-18-6.27-27.09-2-8.56-3.77-17.16-5.91-25.68q-4.23-16.87-8.9-33.64c-3.46-12.44-6.21-25.18-10.88-37.15-10.85-27.76-22.55-55.2-34.29-82.6a14.23,14.23,0,0,0-7.74-7c-6.88-2.29-14.16-3.41-21.31-4.83-1.82-.36-3.78-.06-7.18-.06,21.3,40.65,42.67,80,58.81,121.78S1159.6,1318.29,1175.66,1360Zm162.9,153.3.22-.88c3.49-.18,7-.33,10.47-.55,9-.57,12-3.86,11.5-13-.73-13.1-2.14-26.19-2.38-39.3-.25-13.35-6.87-22-17.76-28.51-14-8.32-26.92.17-29.21,12.61a183.67,183.67,0,0,0-2.53,30.66c-.11,7.75,1.66,15.51,1.92,23.29.2,5.91,3.15,9.75,8.1,11.37C1325.24,1511,1332,1511.86,1338.56,1513.26Zm-98.8-37.76,1.34.38c-.85,13.85,5.93,25.29,11.89,36.91,3.2,6.24,8.54,9.72,15.88,8.73a69.08,69.08,0,0,0,11.14-2.41c6.34-2,12.58-6.43,10.88-15.89-1.58-8.79-2.59-17.74-4.87-26.34a48.24,48.24,0,0,0-19-27.83c-7.58-5.35-18.42-3.5-21.08,5.25C1243.83,1461.35,1241.82,1468.43,1239.76,1475.5Zm135.56,6.25c-.62,12.7,5.26,22.77,12.66,32.21,3.2,4.09,7.52,6.36,12.69,5.11a203.32,203.32,0,0,0,20.34-6.13c1.17-.41,2.31-3.1,2.17-4.63-.83-9.24-1.82-18.49-3.18-27.68-1.33-9-2.76-18-4.91-26.8-1.84-7.55-8-10.67-15.41-8.54a31,31,0,0,0-8.14,3.62C1379.63,1456.62,1376.05,1468.51,1375.32,1481.75Zm89.87,33c0-.17,0-.34,0-.52,3.5,0,7.1.55,10.45-.15s7.59-1.78,9.46-4.21a41.28,41.28,0,0,0,8.17-26.58c-.48-13.42-12.86-19.66-23.77-18.19a142.64,142.64,0,0,1-15.28,1.5c-9.65.25-18.74,11.63-18.94,20.1-.17,7.46.46,14.94.41,22.4,0,4.09,1.58,5.74,5.59,5.69C1449.24,1514.68,1457.21,1514.75,1465.19,1514.75Zm-239.31-367.51-1.93.88c1.15,4.88,2.18,9.79,3.49,14.63,3.77,13.9,7.77,27.74,11.45,41.67s6.92,28,10.61,41.89c4.57,17.29,9.49,34.48,14.09,51.75,5.91,22.26,11.63,44.56,17.56,66.81.34,1.26,1.84,2.21,2.81,3.3.6-1.5,1.83-3.05,1.7-4.48-.41-4.61-1.28-9.19-2.06-13.76-1-5.73-1.95-11.46-3-17.16q-3.3-17.08-6.77-34.14c-1.8-8.76-3.66-17.51-5.69-26.22-2.07-8.87-4.3-17.71-6.59-26.53-2.82-10.9-5.6-21.81-8.72-32.63-2.65-9.22-5.38-18.45-8.76-27.41-4.19-11.15-9-22.07-13.75-33C1229.35,1150.75,1227.37,1149.1,1225.88,1147.24Zm-906.34,81.29c-4.64.29-8.27,0-11.57.88-3.78,1-7.2,3.24-10.89,4.66-13.43,5.16-27,10.08-40.35,15.37a56.72,56.72,0,0,0-12.1,6.58c-1.48,1.06-2.66,4.33-2.08,5.9.49,1.33,3.72,2.4,5.7,2.33,23.91-.85,47.83-1.72,71.71-3.18,3.16-.2,7.5-3,8.9-5.86,3-6,4.33-12.83,6.49-19.27.83-2.48.24-3.73-2.36-4.28C328.15,1230.63,323.35,1229.42,319.54,1228.53Zm720.75-88.5-1.43.89a15.16,15.16,0,0,0,.78,3.12q16,32.42,32.07,64.8,16.8,33.9,33.61,67.78,10.77,21.62,21.76,43.1c.63,1.23,2.46,1.84,3.74,2.74,0-1.62.59-3.42.07-4.84-1.59-4.35-3.71-8.51-5.4-12.83-10-25.46-19.73-51-29.79-76.4-10.64-26.9-24.43-52-42.76-74.51C1049,1149,1044.52,1144.64,1040.29,1140Zm204.12,250.19,1.84,0a29.64,29.64,0,0,0,.47-5.19c-.52-6.63-1.25-13.23-1.87-19.85-1.14-12.25-2.14-24.52-3.45-36.75-.8-7.43-2-14.83-3.14-22.22-1.32-8.52-2.62-17-4.2-25.52q-2.88-15.4-6.25-30.71c-1.78-8.09-3.81-16.12-6-24.12-2.87-10.69-5.9-21.35-9-32-2.8-9.69-5.81-19.32-8.63-29-3-10.23-5.58-20.68-14.46-27.75-1.32-1-4.26-1.7-5.35-.95-1.31.91-2.44,3.9-1.9,5.34,5,13.5,10.7,26.77,15.7,40.29q7.15,19.34,13.34,39c3.28,10.42,6,21,8.76,31.59,3.06,11.87,6.09,23.76,8.68,35.74,2.34,10.85,4.3,21.8,6,32.77,2.4,15.43,4.44,30.91,6.55,46.38C1242.61,1374.91,1243.47,1382.57,1244.41,1390.22ZM679.35,1047l-1.6-1.31c-2,1.85-4.29,3.46-5.92,5.59-5.48,7.12-10.85,14.34-16,21.68-18.19,25.82-36.34,51.58-49.78,80.45-10.94,23.48-16.68,48.18-20.76,73.41-1.86,11.48-2.56,23.14-3.63,34.73-.13,1.39.74,2.88,1.15,4.33.94-1.26,2.48-2.41,2.72-3.79,1.74-10,2.59-20.16,4.94-30,3.34-14,6.76-28.08,11.89-41.46,7.77-20.25,15.61-40.71,26-59.65,15.13-27.49,32.58-53.7,49-80.46C678.09,1049.37,678.7,1048.16,679.35,1047Zm436.09,75.89,75.06,134.82,1.55-.49c-.14-2,.17-4.24-.51-6.09-4.21-11.48-8.21-23.08-13.08-34.29-9.31-21.42-19-42.69-28.86-63.86a129.57,129.57,0,0,0-12.21-21.61C1132.55,1124.71,1125,1122.68,1115.44,1122.87Zm-193.87,50.8,1.36.17c0,3.32-.37,6.7.07,10,2,14.78,3.9,29.58,6.42,44.27,1.7,9.93,4.25,19.71,6.72,29.49.36,1.45,2.37,2.48,3.61,3.71.6-1.8,2-3.76,1.67-5.35-2.4-11.33-5.59-22.5-7.68-33.88-2-11.06-3.33-22.28-4.4-33.48-.61-6.44-.09-13-.12-19.47-.08-17.72,4.12-34.51,11.59-50.44,3.5-7.49,8.09-14.47,12-21.75,1.88-3.46,3.59-7.75-.13-10.42-2.78-2-7.23-3.26-10.51-2.63-4.3.82-7,4.72-7.81,9.42-1.81,10.26-3.93,20.48-5.54,30.77C926.27,1140.57,924,1157.13,921.57,1173.67ZM699.69,1311.31c0,2.5-.12,5,0,7.5.08,1.22.36,3,1.16,3.45s2.52-.2,3.48-.88c5.67-4.07,11.63-7.87,16.68-12.62,2.44-2.29,4.52-6.58,4.3-9.79-.9-12.73-2.71-25.4-4.3-38.08-.73-5.88-7.4-8.52-12.3-5.49-6.86,4.25-9.28,10.24-9.13,18C699.88,1286.05,699.7,1298.69,699.69,1311.31Zm59.45-237.82c-25,15.78-47.32,34.46-65.84,57.44s-31.53,48.67-37.27,78C680.53,1156.19,716.59,1112.42,759.14,1073.49Zm366.33,298.11,1.8-1-74.57-140.53-1.84,1C1065.94,1283.06,1092.66,1328.94,1125.47,1371.6ZM507.41,1233.87a6.56,6.56,0,0,0,1.56-.4c7.25-3.56,14.78-6.67,21.64-10.88,7.86-4.83,7.13-11.89-1.27-15.65-7.68-3.43-15.49-6.59-23.37-9.51a7,7,0,0,0-5.44,1c-9.46,6.46-10.3,9-7.56,20.16.16.64.19,1.32.37,2C495.5,1228,501.57,1233.94,507.41,1233.87Zm800.31-68.81c-4.28,1.92-4.39,5.09-3.85,8.27,1.4,8.17,3.09,16.3,4.48,24.48,2,11.92,4.21,23.83,5.76,35.82,1.6,12.32,3.14,24.72,3.54,37.12.33,10.07-1.17,20.2-1.56,30.31-.07,1.77,1.36,3.59,2.11,5.39.93-1.65,2.59-3.27,2.68-5,.45-9.22.72-18.45.67-27.68-.1-17-.48-34-.7-50.92C1320.58,1202.85,1314.5,1184.17,1307.72,1165.06Zm-672.1,174c-4.65,11.05,1.35,84.91,7.68,97C651.34,1429,645.55,1352.91,635.62,1339.09Zm113.67-301.72c-.12-.45-.25-.9-.38-1.36-1.8.36-3.86.27-5.34,1.15-5.84,3.45-11.92,6.68-17.13,10.95-16.86,13.79-31.33,29.7-41.08,49.45a8.14,8.14,0,0,0-.68,2.8Zm-124,405.46,2.51-.32q-6-47-12-94l-2.58.32C611.57,1380.82,616.39,1412.07,625.28,1442.83Zm361-322.93-1.68,0c-13,41.63-.51,81.15,10.68,120.82a15.4,15.4,0,0,0,.18-6.61c-1.31-7-2.88-14-4.15-21-2.21-12.23-4.74-24.43-6.26-36.76-2-16-2.35-32.13.52-48.16C986,1125.51,986,1122.69,986.26,1119.9Zm-262.5,76.49-1.72-4.76c-1.23,1.85-2.85,3.56-3.62,5.58-2.33,6.17-4.39,12.45-6.46,18.72-2.22,6.74-4.4,13.5-6.4,20.3a5.24,5.24,0,0,0,.57,4c.56.79,2.74,1.44,3.4,1,4.88-3.39,10.49-6.64,11.35-13.13C722.2,1218.1,722.75,1208,723.76,1196.39Zm68.08-17.85-1.24-.31a69.93,69.93,0,0,0-2.27,7.21c-.51,2.43-.32,5-.83,7.42-3.22,15.18-5.31,30.43-1.69,45.8.9,3.83,1.21,8.35,6,11.54Zm373,269.09-1.5.32c-.08,1.75-.22,3.5-.23,5.25,0,17.15-.06,34.3.11,51.44,0,2.33,1.19,4.65,1.82,7,1.42-2.07,2.86-4.14,4.26-6.23a2.07,2.07,0,0,0,.24-1c1.35-17.8,1.39-35.54-2.65-53.06C1166.55,1450,1165.51,1448.87,1164.81,1447.63ZM772.65,1185.4c-10,12.21-16.27,29.83-13.92,44,.31,1.84,2.92,3.3,4.46,4.94,1.3-1.4,3.42-2.64,3.75-4.24,1.43-7,2.39-14.07,3.44-21.12q1.39-9.36,2.59-18.74A29.82,29.82,0,0,0,772.65,1185.4Zm236.25,136.8,1.23-.7c-1.28-2.81-2.48-5.64-3.83-8.41-6.6-13.55-13.2-27.11-20-40.57-.54-1.09-2.39-1.53-3.63-2.28-.26,1.32-1.12,2.88-.7,3.92,3.92,9.82,7.82,19.66,12.23,29.26C997.6,1310.79,1001.74,1317.78,1008.9,1322.2Zm-317.56-96c-.35-.5-1-2.12-1.54-2.07a4,4,0,0,0-2.86,1.83,48.88,48.88,0,0,0-2,6.63c-1.83,6.35-3.79,12.67-5.36,19.08-.3,1.22.94,2.81,1.47,4.23,1-.57,2.68-1,2.9-1.75C686.48,1245.06,688.8,1235.92,691.34,1226.18Z"/><path class="cls-1" d="M1597.2,915.93a6.55,6.55,0,0,0,1.65.83c17.41,3.2,34.81,6.47,52.26,9.49,16.67,2.89,33.4,5.48,50.09,8.25,18.35,3,36.64,6.43,55,9.12,15.61,2.29,31.33,3.78,47,5.66,11.88,1.42,23.71,3.33,35.62,4.28,19.72,1.58,39.48,2.94,59.25,3.69,25.6,1,51.22,1.27,76.84,1.82,5.11.11,5.17.42,4,5.57-1.49,6.81-2.44,13.73-3.75,20.59-2.24,11.71-4.46,23.43-6.93,35.1q-3.86,18.24-8.18,36.36c-2.84,11.92-6,23.75-8.93,35.65-2.84,11.59-5.47,23.23-8.35,34.81-2.85,11.41-5.91,22.77-8.86,34.15-1.82,7.06-4.28,14-5.26,21.22-2.15,15.66-12.21,25.47-24,34-12.32,8.87-26.07,13.5-41.52,12.76-26.08-1.25-52.2-1.75-78.25-3.47-19.21-1.27-38.33-3.93-57.48-6.07-15.85-1.77-31.71-3.45-47.52-5.6-13.65-1.85-27.21-4.35-40.83-6.46-7.87-1.21-15.8-2.11-23.67-3.35-13-2-25.88-4.22-38.81-6.33q-18.43-3-36.87-6c-6.23-1-12.47-2-18.68-3.07-13.25-2.3-26.5-4.54-39.71-7-10.92-2-21.75-4.53-32.67-6.58s-21.92-3.71-32.85-5.76c-10.24-1.92-20.43-4.19-30.66-6.21-10.59-2.09-21.21-4-31.8-6.08-11.06-2.17-22.09-4.49-33.15-6.66-9.92-2-19.87-3.74-29.78-5.69-10.57-2.07-21.11-4.27-31.67-6.37-10.25-2-20.53-3.94-30.78-6-10.55-2.12-21.09-4.36-31.63-6.55l-14.6-3q-29.44-6.15-58.89-12.29c-17-3.56-34.1-7-51.08-10.77-12.45-2.77-24.77-6.1-37.19-9-12.26-2.85-24.6-5.33-36.86-8.19-12.42-2.89-24.77-6.13-37.19-9.07-8.54-2-17.16-3.72-25.72-5.68-8.87-2-17.7-4.26-26.55-6.35-8.39-2-16.79-3.89-25.18-5.86-9.19-2.17-18.37-4.38-27.56-6.56-8.38-2-16.78-3.89-25.15-5.93-12.06-2.94-24.1-6-36.16-8.95-11.58-2.84-23.2-5.57-34.76-8.48-10.93-2.76-21.81-5.69-32.7-8.56q-11.52-3-23-6.16-16.77-4.53-33.54-9.1c-10.39-2.81-20.79-5.54-31.16-8.42-10.2-2.84-20.35-5.86-30.54-8.75-10-2.83-20.1-5.59-30.15-8.4q-15.78-4.43-31.53-8.89c-10.2-2.88-20.4-5.72-30.58-8.64s-20.32-6-30.5-8.91c-9.86-2.83-19.76-5.52-29.62-8.38s-20-6-30-8.94c-9.19-2.75-18.42-5.36-27.55-8.28-14.5-4.62-29-9.39-43.4-14.18Q335.4,903.72,315.66,897c-10.5-3.59-20.91-7.44-31.43-11-14-4.69-28-9.16-42-13.76-10.69-3.52-21.42-7-32-10.69-12.65-4.43-25.31-8.88-37.78-13.77q-25.66-10.08-51-20.91c-13.84-6-27.48-12.39-41.11-18.82-19.67-9.28-34.13-23.48-38.38-45.42A140.3,140.3,0,0,1,39.62,729C40.54,711.28,42.81,693.6,45,676c1.82-14.82,4.42-29.55,6.5-44.35,2-14.14,3.47-28.35,5.7-42.45,3.1-19.68,5.86-39.47,10.41-58.82,2.18-9.29,8-17.73,12.45-26.45,1.42-2.8,3.35-3.73,6.84-1.68,30.64,18,62.05,34.56,94.84,48.32,26.25,11,52.55,22,79.15,32.09,23.33,8.9,47,16.79,70.68,24.85Q364,618.52,396.63,629c22.07,7,44.27,13.7,66.4,20.56,1.74.54,3.33,1.68,5.08,2,1.07.18,2.33-.73,3.5-1.14-.45-1.12-.58-2.81-1.39-3.25-4.48-2.43-8.94-5.12-13.74-6.68-17.16-5.59-34.49-10.65-51.69-16.12-19.55-6.22-39.15-12.3-58.51-19.09Q311.36,593,276.83,579.56c-23.78-9.2-47.27-19.14-71-28.57C174,538.31,144.15,521.71,114,505.68c-6.69-3.56-12.53-8.75-18.63-13.36-2.13-1.61-1.9-3.09.82-4.34a156.85,156.85,0,0,1,42.68-12.61,218.86,218.86,0,0,1,51.26-1.16c16.53,1.42,33,4,49.46,5.92,10.4,1.2,20.86,2,31.26,3.16,10.73,1.23,21.43,2.7,32.14,4.09,7.24.93,14.48,2,21.73,2.83,15.67,1.88,31.39,3.49,47,5.59,14.31,1.92,28.54,4.42,42.82,6.54,13.47,2,27,3.85,40.45,5.79,5.74.83,11.49,1.62,17.21,2.61,17.66,3.08,35.3,6.32,53,9.35,16,2.75,32.11,5.18,48.12,8,11.1,2,22.1,4.48,33.18,6.54,10.92,2,21.91,3.69,32.84,5.67,10.12,1.83,20.2,3.86,30.3,5.81,11.38,2.21,22.78,4.36,34.15,6.64,10.23,2.06,20.42,4.32,30.65,6.41,9.74,2,19.51,3.82,29.24,5.83,10.06,2.09,20.08,4.34,30.12,6.49,9.24,2,18.5,3.86,27.73,5.87,9.71,2.12,19.41,4.33,29.1,6.51,8.57,1.93,17.13,3.85,25.69,5.82,9.52,2.19,19,4.44,28.55,6.63,8.57,2,17.16,3.85,25.73,5.85,12.27,2.87,24.51,5.84,36.78,8.72,9,2.12,18.08,4.12,27.1,6.25,8.22,2,16.41,4,24.62,6q13,3.17,26.08,6.3,12.54,3,25.1,6,13.27,3.21,26.53,6.47c7.88,1.94,15.76,3.92,23.64,5.89q12.76,3.2,25.54,6.39c7.87,2,15.77,3.87,23.64,5.87,8.18,2.08,16.34,4.28,24.52,6.38,12.18,3.14,24.35,6.3,36.55,9.36,11.25,2.81,22.54,5.4,33.77,8.27,11.07,2.82,22.07,5.89,33.11,8.81q11.28,3,22.58,5.84c11.39,2.92,22.79,5.77,34.17,8.71,11.06,2.86,22.11,5.79,33.16,8.7,11.21,2.94,22.42,5.93,33.64,8.85,8,2.08,16,4,24,6.14,10.54,2.83,21,5.76,31.55,8.72,9.88,2.78,19.77,5.53,29.59,8.5,12.19,3.69,24.31,7.58,36.45,11.43q17,5.38,34.06,10.88c11.63,3.77,23.24,7.62,34.87,11.44,11.16,3.66,22.33,7.29,33.48,11,11,3.65,22,7.39,32.95,11.07,11.14,3.73,22.29,7.42,33.43,11.15q16.95,5.67,33.88,11.37,15.76,5.29,31.52,10.63c12.69,4.3,25.46,8.4,38.06,13,14.16,5.15,28.46,10.06,42.15,16.29,15.38,7,30.28,15.11,45.15,23.18,17.94,9.74,35.62,20,53.42,30,8.08,4.54,13,11.73,16.79,19.87,1.28,2.75.62,4.34-2.78,4.59a761.64,761.64,0,0,1-92.76,1.66c-13.94-.67-27.9-1.28-41.79-2.5-19.69-1.72-39.32-4-59-6-10.58-1.09-21.19-2-31.75-3.21-9.4-1.12-18.75-2.65-28.12-4-6.91-1-13.81-2-20.74-2.89-14.82-1.9-29.67-3.58-44.47-5.61-15.62-2.14-31.19-4.62-46.8-6.85a51.5,51.5,0,0,0-7,0C1597.26,915.15,1597.23,915.54,1597.2,915.93ZM718.27,721.6c.74-.75,3-2.45,2.75-2.89-.86-1.68-2.27-3.77-3.9-4.25-15.63-4.55-31.35-8.76-47-13.15-16.14-4.52-32.27-9.14-48.4-13.7-12.79-3.62-25.56-7.29-38.39-10.78-2.17-.58-5.28-2.07-6.19,1.71-.87,3.61,2.17,4.4,4.69,5.24q6.39,2.13,12.82,4.07c17.33,5.22,34.61,10.64,52,15.55,15.5,4.37,31.15,8.21,46.76,12.2C701.32,717.62,709.26,719.43,718.27,721.6ZM564.19,679.2c.23-.65.47-1.29.7-1.93-2.19-1.43-4.32-3-6.58-4.25-11.54-6.62-23.63-11.51-37.25-10.91-2.23.1-4.41,1.31-6.61,2l.39,1.56Z"/><path class="cls-1" d="M847.33,1090.6a20,20,0,0,1,.24,4.21c-1.16,7.72-2.51,15.42-3.68,23.14a74.3,74.3,0,0,0-1.18,10.89c0,14.83-.6,29.72.59,44.47,1.62,20,3.58,40.1,7.43,59.76,4.5,22.93,13.06,44.78,23,66,5.34,11.42,10.52,22.93,16.45,34,2.91,5.44,6.24,11.3,13,13.07,2.5.66,5.27.34,7.91.47,0-3.41.34-6.87-.14-10.21-.23-1.6-1.91-3.07-3.12-4.43-14.62-16.4-19.41-36.29-20.47-57.49-1.09-21.75-2.36-43.5-3-65.27-.37-12.39.31-24.81.56-37.21,0-.58.45-1.14,1.19-2.91,1.37,2.4,2.71,3.85,3.07,5.52,2,9.4,3.8,18.84,5.63,28.28,5.77,29.62,10.5,59.65,27.06,85.77,7.65,12,16.22,23.53,24.79,35,4,5.32,4.52,10.29,1.78,16.15-5.39,11.55-10.6,23.19-15.82,34.82-1.15,2.54,2,10.95,4.48,11.76a3.44,3.44,0,0,0,3-.81c3.15-4,6.65-7.8,8.95-12.24,3.8-7.35,6.21-15.44,10.22-22.65,7.39-13.29,19.13-17.08,33.61-11.67a127.73,127.73,0,0,1,12.26,5.45c12.47,6.22,19,17.08,23.23,29.8,2.7,8.18,5.63,16.29,8.4,24.44a83.54,83.54,0,0,1,4.29,31.89c-.3,5.44-1.33,11.23,3.18,15.57,1.65,1.59,4.74,3.68,6.11,3.09,2.22-1,4.87-3.83,5.08-6.1,1.27-13.88,2.75-27.84,2.42-41.73-.19-7.55-3.86-15-5.89-22.53-.71-2.61-1.23-5.27-2-8.77,2,.67,3.09.75,3.79,1.28,8.63,6.52,17,13.45,25.91,19.51,3.51,2.38,8.26,3,12.55,4,.68.17,2.9-2.17,2.7-2.85-1.07-3.57-1.73-8.07-4.25-10.28-16.66-14.65-27.13-33.5-37.18-52.72-2.16-4.11-4.56-8.11-6.47-12.34-.91-2-.92-4.45-1.34-6.69l1.9-.78c3.36,5,7.76,9.51,9.88,15,4.62,11.88,13.19,20.76,21.16,30,14.76,17.15,30,33.91,45.4,50.48,8.52,9.17,13,19.84,12.64,32-.49,15.08-2.15,30.12-3.47,45.17-.88,10.1-2.32,20.16-3,30.27-.31,4.66-2.15,6.68-6.62,6.82-27.94.86-55.87,2.19-83.82,2.54-43.65.53-87.32.51-131,.49q-21,0-41.93-1.26c-22.06-1.35-44.08-3.21-66.12-4.88-18.55-1.41-37.12-2.73-55.65-4.31-15.89-1.35-31.75-2.94-47.61-4.59-6.77-.71-13.5-1.73-20.23-2.79-5.92-.93-10.78-6.89-11-13.56-.74-27.45-1-54.91-2.2-82.34-.67-15.74-2.58-31.45-4.21-47.14-1.73-16.53-3.93-33-5.65-49.55-1-9.75-1.83-19.54-2.18-29.33-.49-13.85,3.27-27,8.17-39.75,5.79-15,12.41-29.67,18.86-44.41.61-1.38,2.57-2.17,3.9-3.24.17,1.77,1,3.8.4,5.29-5.2,13.26-11.12,26.26-15.84,39.69a140.51,140.51,0,0,0-6,26.1c-1.86,12.78-3.89,25.71-3.78,38.55.11,12.37,2.73,24.73,4.51,37.06.7,4.82,4.78,7,8.73,8.86.74.35,2.62-.43,3.2-1.24,2.64-3.67,4-7.4,1.31-12-4.39-7.45-4.41-15.88-4.25-24.22.12-6.16.39-12.32.59-18.48,0-.83-.3-1.88.08-2.46,2-3,4.2-5.93,6.33-8.88,2,2.88,4.65,5.52,5.65,8.7,1.23,3.87.33,8.41,1.57,12.27,2.83,8.79,6.14,17.46,9.8,25.94,1.54,3.57,1.32,6-.89,9.12-10.75,15-14.62,31.82-12.66,50.06.71,6.66,3.7,9.58,9.34,9.22,5.45-.34,8.08-3.41,7.89-10-.4-13.6.76-26.74,6.94-39.31,5.39-11,14.34-18.16,23.75-25.07,2.78-2,4.69-.39,4.65,2.49a12.84,12.84,0,0,1-2,7c-10.66,15-15.1,31.85-16,50-1.08,20.77,3.16,40.63,9.38,60.22,1.8,5.69,3.43,11.44,5.24,17.12,1.67,5.25,5.23,8.35,10.78,9s11.19,1.18,16.79,1.73c6.84.67,11.48-2.89,14.82-8.27,6.33-10.18,9.53-21.35,10.81-33.3,1.78-16.52-1.17-32.7-2.31-49-1.5-21.5-10.89-40.18-19.55-59.18-8.23-18.06-10.08-37-8.3-56.5a31.23,31.23,0,0,1,2.46-9.6c.65-1.47,2.86-2.47,4.58-3.1.36-.14,2.12,2.17,2.45,3.54q7.54,31.66,14.84,63.39a10.52,10.52,0,0,0,12.75,8.26c3.6-.78,5.63-6,3-9.3-8.61-10.63-9.69-23.38-10.78-36.16-.4-4.71,1.8-6.31,6.38-5s6.74,5.21,8.23,9.37q6.38,17.74,12.55,35.56c1.74,5,6,5.86,10.34,6.21.82.06,2-1.35,2.62-2.34,2.72-4.52,1.23-8.85-.55-13.32-7.27-18.19-8.49-36.81-5.66-56.25,2.29-15.73,2.11-31.8,3.51-47.68,1-11.06,2.54-22.08,4.27-33,1.57-10,3.42-19.93,5.67-29.77,2.44-10.66,5.45-21.18,8.27-31.75,1.88-7.06,3.84-14.1,5.82-21.13a18.11,18.11,0,0,1,1.41-2.91Zm171.48,333.81c-.39-23.06-5.81-40.49-11.79-57.82a24.93,24.93,0,0,0-10.55-13.47c-12.16-7.6-29-3.62-36.9,9.78-15.74,26.57-21.43,55.26-14.74,85.71a231.75,231.75,0,0,0,9.49,30.92c4,10.76,12.59,16.23,23.19,15.29,13.71-1.22,23.11-9.26,28.41-21.33,3.57-8.12,5.34-17.07,7.55-25.74C1015.79,1438.62,1017.68,1429.38,1018.81,1424.41Z"/><path class="cls-1" d="M348.38,1242.89c1.7-6.87,3.28-13.76,5.13-20.58,2.48-9.2.82-17.61-5.13-24.86-4.42-5.4-9.49-10.27-14.39-15.26-13.43-13.69-24.44-29.07-30.92-47.18a104.33,104.33,0,0,1-3.84-58.9c3.93-17.43,8.66-34.68,13.4-51.91,2.11-7.66,5.66-15,4.6-23.2q-1.1-8.38-2.64-16.72c-3-16.31-6.28-32.58-9.07-48.93A58.33,58.33,0,0,1,305,920c.2-2,3-5.16,4.74-5.21,10.71-.3,21.38.62,30.08,7.91,7.68,6.45,9.73,16.6,5.73,25.84-3.43,7.94.67,23.64,7.74,28.84,2.49,1.84,4.92,2.72,6.41-1.67,2.88-8.49-1.32-16.29-1.75-24.42a134.65,134.65,0,0,1,.24-18.19c.29-3.4,3-4.45,6.34-3.49,16.39,4.66,32.82,9.22,49.2,13.93,5.56,1.6,10.91,4.12,16.56,5.15,7.24,1.32,8.67,6.85,10.75,12.29,4.09,10.62,3,21.8,2.05,32.52-.56,6.26-4.66,12.75-8.63,18-7.67,10.23-17.05,19.19-24.5,29.56-13.16,18.31-20.6,39-17.71,61.73,1.51,11.85,5.87,23.36,9.3,34.92,1.3,4.37,8.73,6.78,12.66,4.47a3.86,3.86,0,0,0,1.54-3.24,61.49,61.49,0,0,0-3.42-11.8c-4.35-9.75-8.49-19.5-8.28-30.46.26-14.31,5.52-27.11,13.56-38.45,9.13-12.87,19.35-25,29.32-37.25,7.25-8.92,13.8-18.18,13.41-30.26-.16-5.06-1.89-10.07-3-15.09-.45-2.09-1.42-4.11-1.58-6.21-.93-12.78,1.86-14.79,14.52-12,14.51,3.23,28.73,7.83,43.07,11.85,7.2,2,10.54,6.12,9.72,13.52-1.15,10.54-3,21-4.52,31.52-1.06,7.22-2,14.48-3.25,21.67-2.11,11.9-4.05,23.86-6.8,35.62-3,12.72-6.52,25.33-10.34,37.83-3.34,10.93-7.35,21.65-11.18,32.42-4.38,12.32-9.53,24.42-13,37-1.54,5.47-.09,11.87.45,17.8,1.08,11.9,2.74,23.75,3.61,35.66.49,6.74-3.59,10.36-10.27,11.92-19.32,4.52-39,6.17-58.68,7.89-17,1.5-34,3.87-51,5.88-4.77.57-8.43-2.46-8.58-7.3-.08-2.5,0-5,0-7.5Z"/><path class="cls-1" d="M367.32,1401.15c-13.48-.2-26.24-3.7-39-7.52-5.7-1.72-11.57-3.48-17.44-3.78-4.24-.21-8.66,1.77-12.9,3.1-13.09,4.11-25.12.18-37.3-4.17-7-2.48-11.88-6.57-14.14-13.52a34.56,34.56,0,0,1-1.18-8.29c-.62-8.89-2.94-17-10-23.14-5.74-5-6.1-12.29-7.28-19.09-1.45-8.33-2.63-16.72-3.82-25.09-.7-4.93-1.4-9.89-1.63-14.85-.05-1,1.95-3,3.05-3,21.12-.45,42.25-.27,63.35-1.1,12.42-.49,24.78-2.41,37.15-3.83,15.83-1.82,31.63-4,47.48-5.64,18.32-1.94,36.7-3.35,55-5.31,19.64-2.11,39.09-5.23,58-11.21,15-4.74,30.22-8.63,45.18-13.39,6.44-2,12.57-5.15,18.69-8.06,6.42-3,7.17-3,8.38,4,1.51,8.83,2.08,17.82,3.59,26.65,1.85,10.76,4.13,21.46,6.45,32.14,1.74,7.93,3.91,15.77,5.76,23.68,1.46,6.25-1.25,10.61-6.63,13.61-10,5.57-19.69,11.76-30,16.63-23.67,11.17-47.55,21.88-71.51,32.4a277.18,277.18,0,0,1-32.06,12.11c-7.37,2.2-15.31,2.73-23.05,3.42C396.83,1399.19,382.07,1400.08,367.32,1401.15Z"/><path class="cls-1" d="M606,1491.59c-98.83-15.66-195.67-38.78-288.59-76.59.05-.59.11-1.17.16-1.75a40.92,40.92,0,0,1,4.51-.5c20.17-.06,40.34.3,60.49-.22,19.44-.5,38.85-2,58.29-2.85,13.75-.57,25.17-6.57,35.63-14.74,13.37-10.44,28.85-17,43.91-24.28,10.14-4.92,20.37-9.65,30.55-14.49,7.6-3.61,11.76-1.73,13.95,5.78,3.66,12.54,7.34,25.09,11.55,37.45,3.34,9.8,4.37,19.08-.37,28.88-3.48,7.22,0,13.92,4,20.1q12.15,18.58,24.28,37.17c1,1.49,1.66,3.14,2.48,4.72Z"/><path class="cls-1" d="M1175.66,1360q-24.09-62.51-48.18-125c-16.14-41.8-37.51-81.13-58.81-121.78,3.4,0,5.36-.3,7.18.06,7.15,1.42,14.43,2.54,21.31,4.83a14.23,14.23,0,0,1,7.74,7c11.74,27.4,23.44,54.84,34.29,82.6,4.67,12,7.42,24.71,10.88,37.15q4.65,16.76,8.9,33.64c2.14,8.52,3.94,17.12,5.91,25.68,2.08,9,4.22,18,6.27,27.09q3,13.11,5.76,26.24a7.57,7.57,0,0,1-.28,2.37Z"/><path class="cls-1" d="M1338.56,1513.26c-6.58-1.4-13.32-2.28-19.67-4.36-5-1.62-7.9-5.46-8.1-11.37-.26-7.78-2-15.54-1.92-23.29a183.67,183.67,0,0,1,2.53-30.66c2.29-12.44,15.2-20.93,29.21-12.61,10.89,6.46,17.51,15.16,17.76,28.51.24,13.11,1.65,26.2,2.38,39.3.52,9.19-2.48,12.48-11.5,13-3.49.22-7,.37-10.47.55Z"/><path class="cls-1" d="M1239.76,1475.5c2.06-7.07,4.07-14.15,6.21-21.2,2.66-8.75,13.5-10.6,21.08-5.25a48.24,48.24,0,0,1,19,27.83c2.28,8.6,3.29,17.55,4.87,26.34,1.7,9.46-4.54,13.93-10.88,15.89a69.08,69.08,0,0,1-11.14,2.41c-7.34,1-12.68-2.49-15.88-8.73-6-11.62-12.74-23.06-11.89-36.91Z"/><path class="cls-1" d="M1375.32,1481.75c.73-13.24,4.31-25.13,16.22-32.84a31,31,0,0,1,8.14-3.62c7.42-2.13,13.57,1,15.41,8.54,2.15,8.81,3.58,17.82,4.91,26.8,1.36,9.19,2.35,18.44,3.18,27.68.14,1.53-1,4.22-2.17,4.63a203.32,203.32,0,0,1-20.34,6.13c-5.17,1.25-9.49-1-12.69-5.11C1380.58,1504.52,1374.7,1494.45,1375.32,1481.75Z"/><path class="cls-1" d="M1465.19,1514.75c-8,0-16-.07-23.92,0-4,0-5.62-1.6-5.59-5.69,0-7.46-.58-14.94-.41-22.4.2-8.47,9.29-19.85,18.94-20.1a142.64,142.64,0,0,0,15.28-1.5c10.91-1.47,23.29,4.77,23.77,18.19a41.28,41.28,0,0,1-8.17,26.58c-1.87,2.43-6.1,3.51-9.46,4.21s-7,.15-10.45.15C1465.19,1514.41,1465.19,1514.58,1465.19,1514.75Z"/><path class="cls-1" d="M1225.88,1147.24c1.49,1.86,3.47,3.51,4.39,5.62,4.76,10.91,9.56,21.83,13.75,33,3.38,9,6.11,18.19,8.76,27.41,3.12,10.82,5.9,21.73,8.72,32.63,2.29,8.82,4.52,17.66,6.59,26.53,2,8.71,3.89,17.46,5.69,26.22q3.49,17,6.77,34.14c1.1,5.7,2.09,11.43,3,17.16.78,4.57,1.65,9.15,2.06,13.76.13,1.43-1.1,3-1.7,4.48-1-1.09-2.47-2-2.81-3.3-5.93-22.25-11.65-44.55-17.56-66.81-4.6-17.27-9.52-34.46-14.09-51.75-3.69-13.92-6.94-28-10.61-41.89s-7.68-27.77-11.45-41.67c-1.31-4.84-2.34-9.75-3.49-14.63Z"/><path class="cls-1" d="M319.54,1228.53c3.81.89,8.61,2.1,13.45,3.13,2.6.55,3.19,1.8,2.36,4.28-2.16,6.44-3.51,13.25-6.49,19.27-1.4,2.81-5.74,5.66-8.9,5.86-23.88,1.46-47.8,2.33-71.71,3.18-2,.07-5.21-1-5.7-2.33-.58-1.57.6-4.84,2.08-5.9a56.72,56.72,0,0,1,12.1-6.58c13.39-5.29,26.92-10.21,40.35-15.37,3.69-1.42,7.11-3.65,10.89-4.66C311.27,1228.52,314.9,1228.82,319.54,1228.53Z"/><path class="cls-1" d="M1040.29,1140c4.23,4.61,8.7,9,12.65,13.85,18.33,22.48,32.12,47.61,42.76,74.51,10.06,25.41,19.83,50.94,29.79,76.4,1.69,4.32,3.81,8.48,5.4,12.83.52,1.42,0,3.22-.07,4.84-1.28-.9-3.11-1.51-3.74-2.74q-11-21.46-21.76-43.1-16.86-33.87-33.61-67.78-16.05-32.38-32.07-64.8a15.16,15.16,0,0,1-.78-3.12Z"/><path class="cls-1" d="M1244.41,1390.22c-.94-7.65-1.8-15.31-2.84-23-2.11-15.47-4.15-31-6.55-46.38-1.7-11-3.66-21.92-6-32.77-2.59-12-5.62-23.87-8.68-35.74-2.73-10.58-5.48-21.17-8.76-31.59q-6.21-19.66-13.34-39c-5-13.52-10.66-26.79-15.7-40.29-.54-1.44.59-4.43,1.9-5.34,1.09-.75,4-.09,5.35.95,8.88,7.07,11.48,17.52,14.46,27.75,2.82,9.69,5.83,19.32,8.63,29,3.08,10.64,6.11,21.3,9,32,2.14,8,4.17,16,6,24.12q3.38,15.3,6.25,30.71c1.58,8.47,2.88,17,4.2,25.52,1.14,7.39,2.34,14.79,3.14,22.22,1.31,12.23,2.31,24.5,3.45,36.75.62,6.62,1.35,13.22,1.87,19.85a29.64,29.64,0,0,1-.47,5.19Z"/><path class="cls-1" d="M679.35,1047c-.65,1.18-1.26,2.39-2,3.54-16.45,26.76-33.9,53-49,80.46-10.41,18.94-18.25,39.4-26,59.65-5.13,13.38-8.55,27.48-11.89,41.46-2.35,9.82-3.2,20-4.94,30-.24,1.38-1.78,2.53-2.72,3.79-.41-1.45-1.28-2.94-1.15-4.33,1.07-11.59,1.77-23.25,3.63-34.73,4.08-25.23,9.82-49.93,20.76-73.41,13.44-28.87,31.59-54.63,49.78-80.45,5.18-7.34,10.55-14.56,16-21.68,1.63-2.13,3.93-3.74,5.92-5.59Z"/><path class="cls-1" d="M1115.44,1122.87c9.54-.19,17.11,1.84,22,8.48A129.57,129.57,0,0,1,1149.6,1153c9.87,21.17,19.55,42.44,28.86,63.86,4.87,11.21,8.87,22.81,13.08,34.29.68,1.85.37,4.05.51,6.09l-1.55.49Z"/><path class="cls-1" d="M921.57,1173.67c2.41-16.54,4.7-33.1,7.29-49.62,1.61-10.29,3.73-20.51,5.54-30.77.83-4.7,3.51-8.6,7.81-9.42,3.28-.63,7.73.62,10.51,2.63,3.72,2.67,2,7,.13,10.42-4,7.28-8.54,14.26-12,21.75-7.47,15.93-11.67,32.72-11.59,50.44,0,6.49-.49,13,.12,19.47,1.07,11.2,2.37,22.42,4.4,33.48,2.09,11.38,5.28,22.55,7.68,33.88.34,1.59-1.07,3.55-1.67,5.35-1.24-1.23-3.25-2.26-3.61-3.71-2.47-9.78-5-19.56-6.72-29.49-2.52-14.69-4.44-29.49-6.42-44.27-.44-3.27-.07-6.65-.07-10Z"/><path class="cls-1" d="M699.7,1311.31c0-12.62.18-25.26-.07-37.88-.15-7.79,2.27-13.78,9.13-18,4.9-3,11.57-.39,12.3,5.49,1.59,12.68,3.4,25.35,4.3,38.08.22,3.21-1.86,7.5-4.3,9.79-5,4.75-11,8.55-16.68,12.62-1,.68-2.74,1.33-3.48.88s-1.08-2.23-1.16-3.45C699.57,1316.32,699.69,1313.81,699.7,1311.31Z"/><path class="cls-1" d="M759.14,1073.49c-42.55,38.93-78.61,82.7-103.11,135.42,5.74-29.31,18.72-55,37.27-78S734.13,1089.27,759.14,1073.49Z"/><path class="cls-1" d="M1125.47,1371.6c-32.81-42.66-59.53-88.54-74.61-140.56l1.84-1,74.57,140.53Z"/><path class="cls-1" d="M507.41,1233.87c-5.84.07-11.91-5.85-14.07-13.36-.18-.63-.21-1.31-.37-2-2.74-11.19-1.9-13.7,7.56-20.16a7,7,0,0,1,5.44-1c7.88,2.92,15.69,6.08,23.37,9.51,8.4,3.76,9.13,10.82,1.27,15.65-6.86,4.21-14.39,7.32-21.64,10.88A6.56,6.56,0,0,1,507.41,1233.87Z"/><path class="cls-1" d="M1307.72,1165.06c6.78,19.11,12.86,37.79,13.13,57.83.22,17,.6,33.95.7,50.92,0,9.23-.22,18.46-.67,27.68-.09,1.69-1.75,3.31-2.68,5-.75-1.8-2.18-3.62-2.11-5.39.39-10.11,1.89-20.24,1.56-30.31-.4-12.4-1.94-24.8-3.54-37.12-1.55-12-3.73-23.9-5.76-35.82-1.39-8.18-3.08-16.31-4.48-24.48C1303.33,1170.15,1303.44,1167,1307.72,1165.06Z"/><path class="cls-1" d="M635.62,1339.09c9.93,13.82,15.72,89.94,7.68,97C637,1424,631,1350.14,635.62,1339.09Z"/><path class="cls-1" d="M749.29,1037.37l-64.61,63a8.14,8.14,0,0,1,.68-2.8c9.75-19.75,24.22-35.66,41.08-49.45,5.21-4.27,11.29-7.5,17.13-10.95,1.48-.88,3.54-.79,5.34-1.15C749,1036.47,749.17,1036.92,749.29,1037.37Z"/><path class="cls-1" d="M625.28,1442.83c-8.89-30.76-13.71-62-12.08-94l2.58-.32q6,47,12,94Z"/><path class="cls-1" d="M986.26,1119.9c-.22,2.79-.22,5.61-.71,8.35-2.87,16-2.49,32.14-.52,48.16,1.52,12.33,4.05,24.53,6.26,36.76,1.27,7,2.84,14,4.15,21a15.4,15.4,0,0,1-.18,6.61c-11.19-39.67-23.68-79.19-10.68-120.82Z"/><path class="cls-1" d="M723.76,1196.39c-1,11.6-1.56,21.71-2.88,31.72-.86,6.49-6.47,9.74-11.35,13.13-.66.45-2.84-.2-3.4-1a5.24,5.24,0,0,1-.57-4c2-6.8,4.18-13.56,6.4-20.3,2.07-6.27,4.13-12.55,6.46-18.72.77-2,2.39-3.73,3.62-5.58Z"/><path class="cls-1" d="M791.84,1178.54v71.66c-4.82-3.19-5.13-7.71-6-11.54-3.62-15.37-1.53-30.62,1.69-45.8.51-2.42.32-5,.83-7.42a69.93,69.93,0,0,1,2.27-7.21Z"/><path class="cls-1" d="M1164.81,1447.63c.7,1.24,1.74,2.41,2,3.74,4,17.52,4,35.26,2.65,53.06a2.07,2.07,0,0,1-.24,1c-1.4,2.09-2.84,4.16-4.26,6.23-.63-2.33-1.8-4.65-1.82-7-.17-17.14-.11-34.29-.11-51.44,0-1.75.15-3.5.23-5.25Z"/><path class="cls-1" d="M772.65,1185.4a29.82,29.82,0,0,1,.32,4.83q-1.19,9.39-2.59,18.74c-1,7-2,14.14-3.44,21.12-.33,1.6-2.45,2.84-3.75,4.24-1.54-1.64-4.15-3.1-4.46-4.94C756.38,1215.23,762.67,1197.61,772.65,1185.4Z"/><path class="cls-1" d="M1008.9,1322.2c-7.16-4.42-11.3-11.41-14.67-18.78-4.41-9.6-8.31-19.44-12.23-29.26-.42-1,.44-2.6.7-3.92,1.24.75,3.09,1.19,3.63,2.28,6.77,13.46,13.37,27,20,40.57,1.35,2.77,2.55,5.6,3.83,8.41Z"/><path class="cls-1" d="M691.34,1226.18c-2.54,9.74-4.86,18.88-7.4,28-.22.79-1.9,1.18-2.9,1.75-.53-1.42-1.77-3-1.47-4.23,1.57-6.41,3.53-12.73,5.36-19.08a48.88,48.88,0,0,1,2-6.63,4,4,0,0,1,2.86-1.83C690.3,1224.06,691,1225.68,691.34,1226.18Z"/><path d="M718.27,721.6c-9-2.17-16.95-4-24.84-6-15.61-4-31.26-7.83-46.76-12.2-17.43-4.91-34.71-10.33-52-15.55q-6.43-1.94-12.82-4.07c-2.52-.84-5.56-1.63-4.69-5.24.91-3.78,4-2.29,6.19-1.71,12.83,3.49,25.6,7.16,38.39,10.78,16.13,4.56,32.26,9.18,48.4,13.7,15.67,4.39,31.39,8.6,47,13.15,1.63.48,3,2.57,3.9,4.25C721.24,719.15,719,720.85,718.27,721.6Z"/><path d="M564.19,679.2l-49.35-13.52-.39-1.56c2.2-.7,4.38-1.91,6.61-2,13.62-.6,25.71,4.29,37.25,10.91,2.26,1.29,4.39,2.82,6.58,4.25C564.66,677.91,564.42,678.55,564.19,679.2Z"/><path d="M1018.81,1424.41c-1.13,5-3,14.21-5.34,23.34-2.21,8.67-4,17.62-7.55,25.74-5.3,12.07-14.7,20.11-28.41,21.33-10.6.94-19.18-4.53-23.19-15.29a231.75,231.75,0,0,1-9.49-30.92c-6.69-30.45-1-59.14,14.74-85.71,7.95-13.4,24.74-17.38,36.9-9.78a24.93,24.93,0,0,1,10.55,13.47C1013,1383.92,1018.42,1401.35,1018.81,1424.41Z"/></g></g></svg>