<svg xmlns="http://www.w3.org/2000/svg" viewBox="0 0 2000 1087"><defs><style>.cls-1{fill:#fff;}</style></defs><g id="Layer_2" data-name="Layer 2"><g id="Layer_1-2" data-name="Layer 1"><path d="M0,682V663c.64-1.83,1.73-3.63,1.86-5.5a179.48,179.48,0,0,1,21.6-73.7c23.21-43.1,56-77.87,95.77-105.71,27-18.89,55.47-35.57,83.27-53.27,2.46-1.57,4.78-3.35,7.95-5.57-2.67-1-4.31-1.71-6-2.3C183.23,409.6,162.09,402,140.76,395c-41-13.46-78.47-33.71-113.31-59-13.09-9.52-18.91-22-16.32-38.09.67-4.1,1.44-8.19,2.25-12.27,14.22-71.49,28.28-143,42.81-214.42,3-14.77,6.65-29.61,12.06-43.63C75.34,9.15,91.27.18,111,.83c10.66.34,21.31.8,32,.92C195.59,2.36,248.13,5.54,300.27,13c61.78,8.8,123.43,18.55,185,28.65,41.2,6.77,82.2,14.81,123.27,22.39C661.08,73.71,713.83,82.39,766,93.58c77.1,16.51,153.82,34.79,230.68,52.43,151.94,34.86,302.92,73.55,453.17,115.11C1598.4,302.2,1745,349.29,1889.08,403.93c32.15,12.19,63.41,26.06,91.35,46.5,7.63,5.59,14.63,11.59,17.85,20.91.23.66,1.13,1.09,1.72,1.63v18c-1.61,5-3.73,9.95-4.77,15.1C1980,581.26,1962,655.78,1941.88,729.81c-3.83,14.11-7.14,28.37-15.17,41-7.09,11.16-16,17-29.69,13.09-12.75-3.67-22.47.83-29.65,11.64-1,1.52-2.21,2.92-3.28,4.41-14.64,20.51-30.56,40-48.57,57.61-44.86,43.94-97,77.28-153.3,104.37-37.24,17.91-76.5,30.74-115.15,45.1-8.56,3.18-17.14,6.56-26,8.53-5.48,1.23-8.12,3.42-9.14,8.7-1.8,9.31-3.77,18.59-6,27.81-4,16.94-11.55,22.84-28.85,22.73-25.5-.16-50.93.45-76.28,3.82-7.44,1-15.66,1.21-22.69-.93-13.94-4.26-27.74-4.34-42-3.25a41.82,41.82,0,0,1-17.44-2.42c-5.89-2.21-11.16-2.65-16.9-.52-6.38,2.37-12.71,5-19.25,6.85-11.07,3.15-22.29,3.07-32.48-2.66-7.26-4.09-14.61-6.47-22.8-5.73-34.16,3.09-68.26,6.82-102.46,9.32-37.51,2.75-75.11,4.42-112.67,6.54-7.72.44-15.45.78-23.17,1.17H953l-19.77-1c-56.69-3-113.4-5.59-170.05-9.17-28.23-1.78-56.45-4.63-84.5-8.35-35.79-4.74-71.46-10.48-107.08-16.42-69.2-11.53-137.56-26.69-203.23-51.91-26.21-10.07-51.82-21.75-77.47-33.22-44.81-20.06-89.55-40.33-131.09-66.8-44.65-28.44-84.32-62.45-115.45-105.62-23.46-32.52-39.88-68-42.55-108.73C1.73,684.45.63,683.23,0,682ZM1598.09,459.3c.09-.55.18-1.1.28-1.65,3.28.28,6.59.39,9.85.86,12,1.72,24,3.8,36.06,5.32q70.11,8.84,140.24,17.39c47.16,5.67,94.44,9.55,142,8.2,14.13-.4,28.26-1.41,42.39-2.11,4.36-.21,5-2.16,3.2-5.88-4-8.51-9.73-15.36-18.14-19.95-11-6-21.79-12.2-32.62-18.4-36.44-20.89-73.78-39.74-113.9-52.76-31.8-10.32-63.32-21.47-95.09-31.87-71.28-23.33-142.09-48.31-214.1-69.1-86-24.81-172.88-46.34-259.57-68.54-79.94-20.48-159.94-40.78-240.26-59.67-87.29-20.52-174.87-39.89-262.55-58.67-54-11.57-108.36-21.66-162.74-31.4-49.63-8.88-99.43-16.89-149.29-24.37C377.94,39.81,331.85,34,285.8,28c-22.61-3-45.32-5.15-68-7.94-25.66-3.16-51.28-5.91-77.14-2.18A163,163,0,0,0,97.17,30.28c-4.1,1.83-4.3,3.21-.86,5.85,5.15,3.95,10,8.5,15.72,11.45,27.17,14.09,54,29.13,82,41.28a2171.49,2171.49,0,0,0,251.22,91.2c7.92,2.33,15.46,6,23.07,9.27,1.14.49,1.65,2.41,2.45,3.67-1.51.23-3.12.9-4.52.6-2.41-.52-4.66-1.74-7-2.51-44.82-14.4-89.84-28.22-134.44-43.29C243.06,120.18,162.49,89.73,87.88,45.57c-4.66-2.76-5.87-2-8.75,2.45C69.88,62.5,65.3,78.51,63,95.33c-7.52,54.41-15.2,108.8-22.5,163.24a151.47,151.47,0,0,0,.6,43.82c3.76,23.79,18,39.35,39.21,48.69,34.09,15,67.86,31,102.87,43.53,68.72,24.58,137.76,48.49,207.49,70,83.72,25.88,168.19,49.39,252.54,73.21,102.66,29,206.38,53.77,310.39,77.4,45.26,10.28,90.19,22.11,135.64,31.44,116,23.82,232.28,46.73,348.49,69.78q47.47,9.42,95.22,17.47c36.93,6.25,73.89,12.33,111,17.51,43.51,6.08,87.09,11.91,130.8,16.31,28.61,2.88,57.53,2.75,86.27,4.48,24.13,1.46,42.85-8.61,58.51-25.82,5.29-5.8,8.08-12.9,9.41-20.62.68-3.93,1.5-7.84,2.51-11.7,17.83-68.43,35.73-136.84,47.82-206.61.75-4.32-.07-5.53-4.5-5.61-24-.42-47.94-1.29-71.91-1.71-46.55-.81-92.73-6.23-138.68-12.84-49.57-7.14-98.85-16.26-148.25-24.57C1609.93,461.76,1604,460.46,1598.09,459.3ZM847.39,633.63l-1.46-.2a20.48,20.48,0,0,0-1.72,3.4c-1.67,5.75-3.17,11.55-4.82,17.31-8.95,31.09-15.8,62.6-18.64,94.88-1.44,16.25-1.86,32.61-3.83,48.79-2.56,20.9-1.69,41.18,6.53,60.81.57,1.36,1.28,3.1.88,4.32-.92,2.8-2.06,7.18-3.88,7.61-2.56.6-6-1.56-8.72-3.06-1-.56-1.37-2.55-1.87-4-4-11.28-7.73-22.68-12.17-33.79a19.41,19.41,0,0,0-7.26-8.85c-4.7-2.9-7.74-.68-7.37,4.84.84,12.69,2.29,25.21,10.43,35.89a6.94,6.94,0,0,1,.3,6.29c-.94,1.58-3.68,2.79-5.71,2.91-4.77.29-8.61-3.36-10-8.86-1.47-6-2.77-12-4.16-18-3.36-14.43-6.66-28.87-10.21-43.25-.44-1.8-2.26-3.26-3.44-4.87-1.63,1.5-3.68,2.74-4.77,4.56a16.1,16.1,0,0,0-1.59,6.23c-2.59,21.48-.5,42.42,9.72,61.7,17,32.09,21.23,66.58,20.24,102.09a70.51,70.51,0,0,1-11.24,36.3c-3.28,5.14-7.74,8.24-14.1,7.72-5.64-.46-11.28-1-16.9-1.64-5.28-.61-9-3.42-10.61-8.56-6.28-20.17-13.2-40.2-14.61-61.52-1.55-23.33,1.91-45.47,15.28-65.36a16.9,16.9,0,0,0,2.33-7.43c.38-3.45-1.59-4.9-4.57-2.81-10.76,7.51-20.39,16-25.52,28.67-4.68,11.55-5.35,23.58-5.19,35.82.08,6.49-2.72,9.53-8.16,9.76-5.11.21-8-2.61-8.75-8.78-2.25-17.39,1.35-33.52,11.15-48,3.14-4.67,3.59-8.69,1.41-13.91C689.9,859.82,685,849.1,684.11,837c-.27-3.67-3.31-7.15-5.25-11.06-6.67,7-7.18,8.1-7.36,15.68-.33,14.06-2.45,28.24,4.65,41.65,1,2-.85,6.58-2.77,8.71-2.63,2.89-5.65,0-7.73-2a12.21,12.21,0,0,1-3.38-5.88c-6.95-30.37-5.3-60.73,2.58-90.5,4.32-16.3,11.65-31.8,17.49-47.7.84-2.31.92-4.89,1.36-7.34l-1.67-.68c-1.33,1.73-3.1,3.27-3.94,5.21-6,13.71-12,27.44-17.62,41.3-4.65,11.45-8.84,23.25-8.39,35.74.57,16,2,31.89,3.48,47.79,2.61,27.68,6.38,55.27,8.16,83,1.74,26.9,1.62,53.92,2.27,80.89.23,9.26,4.5,14.71,13.25,15.88,12,1.61,24.1,3.16,36.2,4.23,30.85,2.73,61.71,5.47,92.6,7.66,31.05,2.2,62.14,5,93.23,5.31,73.79.76,147.6.73,221.35-2.71,4.85-.23,7.2-2.08,7.63-7.11q3-35.34,6.31-70.64c1.39-14.53-3.19-26.72-13-37.44-16.93-18.59-33.9-37.16-50.2-56.3-6.38-7.5-11-16.54-16.42-24.84-3.08-4.68-6.31-9.27-9.47-13.9l-1.94.95c.5,2.46.55,5.13,1.57,7.36,2.35,5.14,5.15,10.06,7.79,15.07,9.5,18,19.83,35.44,35.1,49.43,2.11,1.94,3.08,5.4,4,8.34,1,3.23-.8,5-4,4.06-3.94-1.15-8.16-2.21-11.49-4.44-7.45-5-14.4-10.76-21.63-16.12-1.92-1.42-4.09-2.51-7.48-4.55,1.52,5.79,2.22,10.24,3.84,14.33a68,68,0,0,1,4.29,32.33c-.86,8.78-1.2,17.62-2.38,26.35-.33,2.39-2.46,5.53-4.54,6.37-1.58.63-5.28-1.28-6.47-3.09a21.07,21.07,0,0,1-3.07-9.6c-.58-7.45.71-15.23-.91-22.38-3-13.08-7.65-25.78-11.38-38.7-5.73-19.85-19.48-31.13-38.66-36.74-13.51-4-24.1.19-30.82,12.5-2.87,5.23-4.65,11.06-7.48,16.31a158.11,158.11,0,0,1-10.49,16.86c-2.68,3.77-4.82,3.27-7-.9-1.84-3.59-2.24-7.08-.4-11,4.91-10.37,9.44-20.93,14.33-31.31,3-6.24,2.37-11.89-1.78-17.3-2.22-2.91-4.34-5.9-6.61-8.78-18.64-23.56-32.71-49.32-38.5-79.14q-5.56-28.66-11.46-57.25c-.59-2.84-2-5.5-3-8.24l-1.84.42c-.3,6.72-1,13.46-.84,20.16.83,28.63,1.67,57.25,3,85.86,1,20,5.53,39.06,19.34,54.45,4.37,4.86,4.84,9.71,4,15.38-8.94,1.18-14.39-1.14-18.65-10.23-11.37-24.23-24.39-48-32.61-73.31C841.89,751.53,838,696,847.35,639.75A37.84,37.84,0,0,0,847.39,633.63ZM443.71,523.74l1.36-.06c-1.35-6.8-2.5-13.64-4.11-20.38-1.69-7.11-5.85-11.75-13.63-12.57-2.43-.25-4.72-1.57-7.12-2.27-18.52-5.37-37-10.76-55.61-16-4.37-1.24-6.64.3-6.5,4.79.27,9.27,1.09,18.54,1.61,27.81.22,4,.73,8,.2,11.89-.73,5.32-3.4,6-7.4,2.38-6.7-6.06-9.76-19.18-6.57-28.22,4.42-12.57.2-23.14-11.63-29.31-7.35-3.84-15.31-4.34-23.33-4.2-3.67.06-5.9,2.54-6,6.11a76.54,76.54,0,0,0,.54,14.92c2.82,16.56,6.21,33,9.09,49.58,1.76,10.11,4,20.1.61,30.57-4.53,14.08-8.17,28.45-11.93,42.77s-7.38,28.72-6.74,43.75C297.71,672.51,308,696,325.8,716.35c6.78,7.78,14.13,15,21.11,22.65s9.15,16.72,6.28,26.87c-1.45,5.12-3.18,10.26-3.73,15.5a46.59,46.59,0,0,0,.84,15c.43,1.93,3.85,3.72,6.26,4.5,2,.67,4.59-.17,6.9-.42,20-2.16,40.08-4.13,60.07-6.59,14.68-1.82,29.34-4,43.9-6.6,8.85-1.6,11.09-5.14,10.55-14-.3-5-.88-10-1.35-14.93-3.73-39.5-7.34-26.83,7.6-64.93,20.77-53,31.68-108.1,38.65-164.23,1.47-11.87-.6-14.62-12.06-17.92-6.87-2-13.7-4.12-20.61-5.94-8.2-2.16-16.42-4.29-24.73-6-6.85-1.39-10.08,1.1-9.8,8.06a76.86,76.86,0,0,0,3,16.59c3.07,11.4,1.23,21.76-5.58,31.3q-2.89,4.07-5.95,8c-10.61,13.68-21.95,26.87-31.71,41.13-12.8,18.67-15.47,39-5.67,60.16a90.35,90.35,0,0,1,5,14.05c.49,1.81.19,4.93-1,5.82a7.19,7.19,0,0,1-6.35.58c-2.42-1.23-5-3.47-6-5.9-2.4-6-3.89-12.36-5.8-18.55-7.69-24.85-4-48.27,10.15-69.7,7-10.65,15.58-20.32,23.89-30.07C438.88,550.16,445.66,538.7,443.71,523.74ZM263.78,824.49h-33c-8.07,0-8.78.41-7.74,8.58q2.73,21.54,6.47,42.95a18.57,18.57,0,0,0,4.77,9.61,34.67,34.67,0,0,1,10.88,24.92c.35,11.11,5.75,18.46,16.51,21.71,4.61,1.39,9.14,3.62,13.84,4,7.17.65,15,1.74,21.58-.37,10.5-3.37,20-2.33,30.22.37,12.49,3.3,25.3,7.28,38,7.39a339.3,339.3,0,0,0,60.15-4.62c14.52-2.5,28.71-8.35,42.35-14.3,33.67-14.68,67.77-28.55,99.33-47.68,7.69-4.66,9.29-8.18,7.13-17-1.43-5.81-3.15-11.58-4.22-17.46-3.82-21.11-7.41-42.26-11.12-63.39-1-5.44-2.25-6.39-6.9-3.91C537.69,783,522,786.83,506.62,791.69c-28.18,8.9-56.75,15.56-86.28,18-19.74,1.61-39.45,3.67-59.15,5.76C328.77,818.87,296.59,824.94,263.78,824.49ZM317.63,956l-.31,2c93.07,37.92,190,61.09,289.36,76a28,28,0,0,0-3.43-7.53c-8-12.3-16-24.52-24-36.84-3.61-5.61-6.27-11.56-3-18.29,3.95-8.26,4.08-16.76,1.55-25.31-4.15-14-8.52-28-12.94-42-2.07-6.54-6-8.41-12.3-5.79-5.83,2.42-11.52,5.19-17.2,8-22.54,11-45.81,20.6-65.87,36.25a48.35,48.35,0,0,1-28.85,9.91q-55.89,1.53-111.78,3C325.1,955.61,321.37,955.86,317.63,956Zm857.81-53.2,1.48-.4a21.64,21.64,0,0,0-.24-3.88c-11.09-45.38-20.47-91.28-33.94-135.94-9.79-32.48-25-63.35-37.89-94.86a10.87,10.87,0,0,0-4.95-5.38c-9.69-4.41-20-6.19-32.49-6.44C1114.61,734.37,1142.83,819.56,1175.44,902.84Zm132.9,110.94c.79,8.7,1.56,17.47,2.39,26.24.76,8,3.11,10.7,10.78,12.88a71.45,71.45,0,0,0,26.54,2.23c10.37-1,13.4-3.66,12.83-14-.69-12.45-2-24.89-2.26-37.35-.27-13.71-6.47-23.35-18-30-13.35-7.67-27.27-1.18-29.49,14C1309.83,996.38,1309.24,1005,1308.34,1013.78Zm-16.14,35c-2.84-12.08-5.06-24.35-8.69-36.19-2.74-8.9-9-15.83-16.94-21-6.52-4.24-15.48-4-18.33,1.8-3.77,7.61-7.51,16.12-7.8,24.36-.51,14.51,6.06,27.56,13.47,39.89,2.78,4.62,7,7.6,12.33,7a75.07,75.07,0,0,0,17.33-4C1288.57,1058.87,1291.51,1054.75,1292.2,1048.75Zm131.72.37c-2.8-17.06-5.32-34.17-8.5-51.16-1.72-9.22-8.23-12.48-17.2-9.36a31.25,31.25,0,0,0-19.37,18.23,47.17,47.17,0,0,0,10.31,51.73c3.31,3.33,7.23,4.74,11.82,3.5,5.61-1.52,11.12-3.46,16.77-4.82C1422.25,1056.16,1423.8,1053.59,1423.92,1049.12Zm11.21-8.67c.12,1.66.29,3.31.35,5s0,3.33,0,5c.12,6.62,1.3,7.72,8.09,7.58,8.79-.17,17.59-.41,26.38-.47,11.86-.09,16.38-3.07,20.61-14.2a41.88,41.88,0,0,0,2.24-8.15c3.15-19.35-7.23-29.72-26.65-26.83a93,93,0,0,1-10.91,1.07c-6.75.2-11.46,3.69-15.54,8.66C1434.21,1024.78,1435,1032.64,1435.13,1040.45Zm-209-350.59-2,.89a35.54,35.54,0,0,0,.59,4c3.74,14.15,7.55,28.27,11.28,42.42q22,83.46,44.06,166.91a53.75,53.75,0,0,0,2.86,6.88l2-.31c.16-2.43.85-5,.39-7.27-6.77-34.26-13-68.64-20.77-102.68-8-35.18-17.45-70.06-33.27-102.78C1229.89,695.08,1227.84,692.54,1226.1,689.86ZM281.91,807.18v-.94l37.34-2.09c5-.28,8.64-2.82,10.38-7.33,2.25-5.89,4.06-12,5.73-18,.3-1.11-.74-3.59-1.63-3.85-9.59-2.78-19.25-5.46-29.22-1.48-10.64,4.25-21.35,8.31-31.93,12.69-8.88,3.68-17.75,7.45-26.32,11.78-1.93,1-2.6,4.44-3.86,6.76,2.2.83,4.39,2.33,6.6,2.38C260,807.32,270.94,807.18,281.91,807.18Zm758.34-124.4-1.35.78a28.16,28.16,0,0,0,1.44,5.32q42.73,86,85.63,171.89c.87,1.73,2.49,3.09,3.77,4.62l1.53-.74c-.43-2.29-.51-4.72-1.35-6.86-10.34-26.47-20.92-52.85-31.18-79.35-12.28-31.72-27.71-61.57-50.5-87.17C1045.66,688.37,1042.92,685.61,1040.25,682.78ZM1244.4,933l1.67,0c.26-1.94.88-3.91.71-5.81-1.93-20.88-3.42-41.82-6.11-62.61a767.68,767.68,0,0,0-26.73-124.77c-4.67-15.43-9-31-14.36-46.18-1.72-4.92-5.84-9.14-9.39-13.23-1-1.21-4.73-1.82-5.7-1-1.32,1.14-1.64,4-1.55,6,.08,1.9,1.21,3.77,2,5.61,30.53,72.25,48.92,147.59,57.28,225.48C1242.8,922.09,1243.66,927.54,1244.4,933Zm-662-124.89,1.3.32c.78-1.8,1.93-3.54,2.27-5.43,1-5.56,1.55-11.21,2.54-16.78,7.17-40.2,21.46-78,41.07-113.53,14.37-26.07,30.84-51,46.34-76.42,1.29-2.12,2.36-4.39,3.53-6.59l-1.55-1.2c-2.27,2.16-4.89,4-6.75,6.52q-10.53,13.95-20.64,28.23c-17.08,24.23-33.84,48.7-45.87,76-14.71,33.35-20.53,68.72-23,104.78A16.91,16.91,0,0,0,582.36,808.11Zm608-7.33,2.1-.76c-.62-3-.78-6.17-1.93-8.93-10.93-26.22-21.72-52.49-33.2-78.47-5.63-12.72-12.27-25-19.14-37.17-4.7-8.29-13-10-22.9-9.49Zm-251.73,3.33,2.33-.5c-.14-3.15.08-6.38-.48-9.45-3.24-17.65-7.37-35.17-9.86-52.92-4.69-33.43-.26-65.36,18.4-94.39a73.15,73.15,0,0,0,5.34-10.14c1.71-3.87.22-6.73-3.52-8.57-8.26-4-15-.74-16.68,8.45-2.39,13.09-5.06,26.15-6.77,39.34-1.92,14.71-5.77,29.2-4.65,44.29a441.55,441.55,0,0,0,12.71,78.17C936,800.43,937.57,802.21,938.65,804.11ZM699.5,865.49c2.59-.6,4.09-.55,5-1.25,5.79-4.19,11.89-8.09,17-13,2.38-2.34,3.9-6.9,3.67-10.3-.81-12.1-2.4-24.16-4-36.19-1-7.42-7.41-10-13.62-5.7-5.89,4-8.07,9.89-8,16.79,0,8.48,0,17,0,25.44Zm427.9,48q-37.29-70.28-74.6-140.55C1048.65,791.11,1108.29,903.79,1127.4,913.48ZM491.52,753.63l-1.31.55c2.56,6,4.56,12.32,7.87,17.86,2.16,3.62,6.41,6.4,11.17,4.29a224.48,224.48,0,0,0,21.4-10.67c7.83-4.56,7.49-11.61-.64-15.48-6.9-3.27-14-6-21.14-8.85C501.15,738.28,491.44,745.24,491.52,753.63Zm165.66-5.4c24.37-49.42,58.61-91.28,98.29-129C707.61,650.71,670.26,690.22,657.18,748.23ZM1308,708.4l-2-.53c-.74,2.58-2.11,5.17-2.08,7.75,0,3.61,1.22,7.2,1.74,10.82,3.88,26.68,8.28,53.29,11.29,80.06,1.27,11.29-.54,22.91-.73,34.39,0,2.66.77,5.34,1.2,8l2.3-.08c.52-3,1.47-5.94,1.48-8.92.06-25.31.22-50.62-.2-75.92C1320.58,744.59,1314.51,726.4,1308,708.4ZM643.42,978.63c8.1-12,1.75-86.91-8.1-95.64C631.2,900.1,636.85,966.9,643.42,978.63Zm107.1-399.28c-17.67-.18-62.52,44.45-65.32,63.74ZM615.93,891.59l-1.71-.34a12.89,12.89,0,0,0-1.18,3.46c-1.33,30.23,3.25,59.71,11.44,88.71.29,1,1.45,1.77,2.2,2.64l1.24-.65Q621.92,938.51,615.93,891.59ZM994.6,781.87l1.51,0c-3.5-19.75-7.08-39.47-10.47-59.24s-2-39.57-.25-59.37C971.76,704.15,983.52,743,994.6,781.87ZM723.7,735.64l-1.94-.35c-.35.31-.88.56-1,.94-5.2,14.66-10.5,29.28-15.39,44-.94,2.86,2.57,5,5.3,3.23,3.12-2.08,7.13-4.42,8.31-7.56C723.84,762.91,722.8,749.15,723.7,735.64Zm68-13.94-1.77-.27c-1.14,6.27-2.19,12.56-3.43,18.81-2.87,14.47-4.08,29-.31,43.44.84,3.26,2.72,6.24,4.12,9.34l1.39-.58Zm-29.12,56.18c5.32-4.78,11.84-40.71,9.51-49-9.45,12.62-15,26.08-13.6,41.68C758.65,772.93,761,775.15,762.54,777.88Zm402,276,1.26.24c1.32-2.54,3.6-5,3.8-7.64,1.26-17.12,1.53-34.26-2.54-51.12-.4-1.66-1.58-3.12-2.4-4.67-1.36,1.17-1.66,1.92-1.67,2.67,0,18-.07,36,0,53.95C1163.09,1049.46,1164.06,1051.65,1164.58,1053.84ZM1009.68,865c.1-.79.27-1.17.16-1.41-7.61-15.71-15.19-31.43-23-47.08-.66-1.33-2.43-2.11-4-3.41C980.39,823.42,1000.4,861.51,1009.68,865Zm-328.54-66.2c4.52-2.71,11-27.91,8.33-31.57C685,770,678.58,793.53,681.14,798.76Z"/><path class="cls-1" d="M2000,473c-.59-.54-1.49-1-1.72-1.63-3.22-9.32-10.22-15.32-17.85-20.91-27.94-20.44-59.2-34.31-91.35-46.5C1745,349.29,1598.4,302.2,1449.89,261.12,1299.64,219.56,1148.66,180.87,996.72,146,919.86,128.37,843.14,110.09,766,93.58,713.83,82.39,661.08,73.71,608.55,64c-41.07-7.58-82.07-15.62-123.27-22.39C423.7,31.52,362.05,21.77,300.27,13,248.13,5.54,195.59,2.36,142.91,1.75c-10.65-.12-21.3-.58-32-.92C91.27.18,75.34,9.15,68.25,27.55c-5.41,14-9,28.86-12.06,43.63C41.66,142.6,27.6,214.11,13.38,285.6c-.81,4.08-1.58,8.17-2.25,12.27C8.54,314,14.36,326.44,27.45,336c34.84,25.33,72.27,45.58,113.31,59,21.33,7,42.47,14.6,63.69,21.93,1.69.59,3.33,1.27,6,2.3-3.17,2.22-5.49,4-7.95,5.57-27.8,17.7-56.3,34.38-83.27,53.27-39.78,27.84-72.56,62.61-95.77,105.71a179.48,179.48,0,0,0-21.6,73.7C1.73,659.35.64,661.15,0,663V0H2000Z"/><path class="cls-1" d="M989,1087c7.72-.39,15.45-.73,23.17-1.17,37.56-2.12,75.16-3.79,112.67-6.54,34.2-2.5,68.3-6.23,102.46-9.32,8.19-.74,15.54,1.64,22.8,5.73,10.19,5.73,21.41,5.81,32.48,2.66,6.54-1.86,12.87-4.48,19.25-6.85,5.74-2.13,11-1.69,16.9.52a41.82,41.82,0,0,0,17.44,2.42c14.22-1.09,28-1,42,3.25,7,2.14,15.25,1.92,22.69.93,25.35-3.37,50.78-4,76.28-3.82,17.3.11,24.8-5.79,28.85-22.73,2.2-9.22,4.17-18.5,6-27.81,1-5.28,3.66-7.47,9.14-8.7,8.87-2,17.45-5.35,26-8.53,38.65-14.36,77.91-27.19,115.15-45.1,56.32-27.09,108.44-60.43,153.3-104.37,18-17.64,33.93-37.1,48.57-57.61,1.07-1.49,2.27-2.89,3.28-4.41,7.18-10.81,16.9-15.31,29.65-11.64,13.66,3.93,22.6-1.93,29.69-13.09,8-12.64,11.34-26.9,15.17-41,20.08-74,38.11-148.55,53.35-223.74,1-5.15,3.16-10.07,4.77-15.1v596Z"/><path class="cls-1" d="M0,682c.63,1.25,1.73,2.47,1.81,3.75,2.67,40.76,19.09,76.21,42.55,108.73,31.13,43.17,70.8,77.18,115.45,105.62,41.54,26.47,86.28,46.74,131.09,66.8,25.65,11.47,51.26,23.15,77.47,33.22,65.67,25.22,134,40.38,203.23,51.91,35.62,5.94,71.29,11.68,107.08,16.42,28.05,3.72,56.27,6.57,84.5,8.35,56.65,3.58,113.36,6.17,170.05,9.17l19.77,1H0Z"/><path class="cls-1" d="M1598.09,459.3c5.93,1.16,11.84,2.46,17.79,3.46,49.4,8.31,98.68,17.43,148.25,24.57,45.95,6.61,92.13,12,138.68,12.84,24,.42,47.94,1.29,71.91,1.71,4.43.08,5.25,1.29,4.5,5.61-12.09,69.77-30,138.18-47.82,206.61-1,3.86-1.83,7.77-2.51,11.7-1.33,7.72-4.12,14.82-9.41,20.62-15.66,17.21-34.38,27.28-58.51,25.82-28.74-1.73-57.66-1.6-86.27-4.48-43.71-4.4-87.29-10.23-130.8-16.31-37.09-5.18-74.05-11.26-111-17.51q-47.72-8.09-95.22-17.47c-116.21-23.05-232.44-46-348.49-69.78-45.45-9.33-90.38-21.16-135.64-31.44-104-23.63-207.73-48.42-310.39-77.4C558.83,514,474.36,490.52,390.64,464.64c-69.73-21.54-138.77-45.45-207.49-70-35-12.52-68.78-28.56-102.87-43.53-21.25-9.34-35.45-24.9-39.21-48.69a151.47,151.47,0,0,1-.6-43.82c7.3-54.44,15-108.83,22.5-163.24C65.3,78.51,69.88,62.5,79.13,48c2.88-4.5,4.09-5.21,8.75-2.45,74.61,44.16,155.18,74.61,236.9,102.23,44.6,15.07,89.62,28.89,134.44,43.29,2.37.77,4.62,2,7,2.51,1.4.3,3-.37,4.52-.6-.8-1.26-1.31-3.18-2.45-3.67-7.61-3.29-15.15-6.94-23.07-9.27A2171.49,2171.49,0,0,1,194,88.86c-28-12.15-54.83-27.19-82-41.28-5.69-2.95-10.57-7.5-15.72-11.45-3.44-2.64-3.24-4,.86-5.85A163,163,0,0,1,140.7,17.89c25.86-3.73,51.48-1,77.14,2.18,22.64,2.79,45.35,5,68,7.94,46.05,6,92.14,11.8,138.06,18.69,49.86,7.48,99.66,15.49,149.29,24.37,54.38,9.74,108.72,19.83,162.74,31.4,87.68,18.78,175.26,38.15,262.55,58.67,80.32,18.89,160.32,39.19,240.26,59.67,86.69,22.2,173.61,43.73,259.57,68.54,72,20.79,142.82,45.77,214.1,69.1,31.77,10.4,63.29,21.55,95.09,31.87,40.12,13,77.46,31.87,113.9,52.76,10.83,6.2,21.66,12.42,32.62,18.4,8.41,4.59,14.09,11.44,18.14,19.95,1.78,3.72,1.16,5.67-3.2,5.88-14.13.7-28.26,1.71-42.39,2.11-47.57,1.35-94.85-2.53-142-8.2q-70.14-8.46-140.24-17.39c-12-1.52-24-3.6-36.06-5.32-3.26-.47-6.57-.58-9.85-.86C1598.27,458.2,1598.18,458.75,1598.09,459.3ZM580.2,218.74c-.79.55-2.6,1.16-2.84,2.14a5.16,5.16,0,0,0,1.06,4.33,13.79,13.79,0,0,0,5.39,2.41Q640,243.57,696.15,259.37c6.56,1.84,13.22,3.34,19.91,4.63,1.36.26,3-1.12,4.56-1.74-.69-1.38-1.06-3.16-2.15-4a14.13,14.13,0,0,0-5-2.05Q656.07,240,598.66,223.9Zm-14.69,3.87c-.9-2-1-2.63-1.29-2.85-12.82-8.83-26.49-15.3-42.53-14.72-2.43.09-4.84,1.25-7.25,1.92,0,.57,0,1.14,0,1.71Z"/><path class="cls-1" d="M847.39,633.63a37.84,37.84,0,0,1,0,6.12C838,696,841.89,751.53,859.42,805.47c8.22,25.3,21.24,49.08,32.61,73.31,4.26,9.09,9.71,11.41,18.65,10.23.79-5.67.32-10.52-4-15.38-13.81-15.39-18.38-34.48-19.34-54.45-1.38-28.61-2.22-57.23-3-85.86-.2-6.7.54-13.44.84-20.16l1.84-.42c1,2.74,2.43,5.4,3,8.24q5.88,28.59,11.46,57.25c5.79,29.82,19.86,55.58,38.5,79.14,2.27,2.88,4.39,5.87,6.61,8.78,4.15,5.41,4.73,11.06,1.78,17.3-4.89,10.38-9.42,20.94-14.33,31.31-1.84,3.88-1.44,7.37.4,11,2.14,4.17,4.28,4.67,7,.9a158.11,158.11,0,0,0,10.49-16.86c2.83-5.25,4.61-11.08,7.48-16.31C966,881.14,976.6,877,990.11,881c19.18,5.61,32.93,16.89,38.66,36.74,3.73,12.92,8.4,25.62,11.38,38.7,1.62,7.15.33,14.93.91,22.38a21.07,21.07,0,0,0,3.07,9.6c1.19,1.81,4.89,3.72,6.47,3.09,2.08-.84,4.21-4,4.54-6.37,1.18-8.73,1.52-17.57,2.38-26.35a68,68,0,0,0-4.29-32.33c-1.62-4.09-2.32-8.54-3.84-14.33,3.39,2,5.56,3.13,7.48,4.55,7.23,5.36,14.18,11.11,21.63,16.12,3.33,2.23,7.55,3.29,11.49,4.44,3.23.93,5-.83,4-4.06-.9-2.94-1.87-6.4-4-8.34-15.27-14-25.6-31.4-35.1-49.43-2.64-5-5.44-9.93-7.79-15.07-1-2.23-1.07-4.9-1.57-7.36l1.94-.95c3.16,4.63,6.39,9.22,9.47,13.9,5.47,8.3,10,17.34,16.42,24.84,16.3,19.14,33.27,37.71,50.2,56.3,9.76,10.72,14.34,22.91,13,37.44q-3.37,35.29-6.31,70.64c-.43,5-2.78,6.88-7.63,7.11-73.75,3.44-147.56,3.47-221.35,2.71-31.09-.33-62.18-3.11-93.23-5.31-30.89-2.19-61.75-4.93-92.6-7.66-12.1-1.07-24.16-2.62-36.2-4.23-8.75-1.17-13-6.62-13.25-15.88-.65-27-.53-54-2.27-80.89-1.78-27.73-5.55-55.32-8.16-83-1.5-15.9-2.91-31.84-3.48-47.79-.45-12.49,3.74-24.29,8.39-35.74,5.64-13.86,11.62-27.59,17.62-41.3.84-1.94,2.61-3.48,3.94-5.21l1.67.68c-.44,2.45-.52,5-1.36,7.34-5.84,15.9-13.17,31.4-17.49,47.7-7.88,29.77-9.53,60.13-2.58,90.5a12.21,12.21,0,0,0,3.38,5.88c2.08,1.94,5.1,4.84,7.73,2,1.92-2.13,3.81-6.76,2.77-8.71-7.1-13.41-5-27.59-4.65-41.65.18-7.58.69-8.7,7.36-15.68,1.94,3.91,5,7.39,5.25,11.06.86,12.12,5.79,22.84,10.32,33.69,2.18,5.22,1.73,9.24-1.41,13.91-9.8,14.51-13.4,30.64-11.15,48,.8,6.17,3.64,9,8.75,8.78,5.44-.23,8.24-3.27,8.16-9.76-.16-12.24.51-24.27,5.19-35.82,5.13-12.63,14.76-21.16,25.52-28.67,3-2.09,5-.64,4.57,2.81a16.9,16.9,0,0,1-2.33,7.43c-13.37,19.89-16.83,42-15.28,65.36,1.41,21.32,8.33,41.35,14.61,61.52,1.61,5.14,5.33,8,10.61,8.56,5.62.65,11.26,1.18,16.9,1.64,6.36.52,10.82-2.58,14.1-7.72a70.51,70.51,0,0,0,11.24-36.3c1-35.51-3.24-70-20.24-102.09-10.22-19.28-12.31-40.22-9.72-61.7a16.1,16.1,0,0,1,1.59-6.23c1.09-1.82,3.14-3.06,4.77-4.56,1.18,1.61,3,3.07,3.44,4.87C767.3,815.11,770.6,829.55,774,844c1.39,6,2.69,12,4.16,18,1.35,5.5,5.19,9.15,10,8.86,2-.12,4.77-1.33,5.71-2.91a6.94,6.94,0,0,0-.3-6.29c-8.14-10.68-9.59-23.2-10.43-35.89-.37-5.52,2.67-7.74,7.37-4.84a19.41,19.41,0,0,1,7.26,8.85c4.44,11.11,8.15,22.51,12.17,33.79.5,1.4.83,3.39,1.87,4,2.75,1.5,6.16,3.66,8.72,3.06,1.82-.43,3-4.81,3.88-7.61.4-1.22-.31-3-.88-4.32-8.22-19.63-9.09-39.91-6.53-60.81,2-16.18,2.39-32.54,3.83-48.79,2.84-32.28,9.69-63.79,18.64-94.88,1.65-5.76,3.15-11.56,4.82-17.31a20.48,20.48,0,0,1,1.72-3.4Zm94.51,339.3c-.12,14,5.69,33.21,13.32,51.91,3.65,8.94,11,13.43,21,13.18,13.86-.36,25.39-8.64,30.67-23.8,3.81-11,6.32-22.37,9.1-33.65,1.34-5.45,2.79-11.08,2.74-16.62-.19-18.49-5.16-36.09-11.16-53.45-3.61-10.46-10.68-17-21.6-18.14-11.21-1.22-20.26,3.36-26.18,13C948.35,924.08,942,944.33,941.9,972.93Z"/><path class="cls-1" d="M443.71,523.74c2,15-4.83,26.42-14,37.17-8.31,9.75-16.87,19.42-23.89,30.07-14.12,21.43-17.84,44.85-10.15,69.7,1.91,6.19,3.4,12.55,5.8,18.55,1,2.43,3.58,4.67,6,5.9a7.19,7.19,0,0,0,6.35-.58c1.18-.89,1.48-4,1-5.82a90.35,90.35,0,0,0-5-14.05c-9.8-21.21-7.13-41.49,5.67-60.16,9.76-14.26,21.1-27.45,31.71-41.13q3.06-3.95,5.95-8c6.81-9.54,8.65-19.9,5.58-31.3a76.86,76.86,0,0,1-3-16.59c-.28-7,2.95-9.45,9.8-8.06,8.31,1.68,16.53,3.81,24.73,6,6.91,1.82,13.74,4,20.61,5.94,11.46,3.3,13.53,6.05,12.06,17.92-7,56.13-17.88,111.26-38.65,164.23-14.94,38.1-11.33,25.43-7.6,64.93.47,5,1.05,9.94,1.35,14.93.54,8.82-1.7,12.36-10.55,14-14.56,2.62-29.22,4.78-43.9,6.6-20,2.46-40,4.43-60.07,6.59-2.31.25-4.86,1.09-6.9.42-2.41-.78-5.83-2.57-6.26-4.5a46.59,46.59,0,0,1-.84-15c.55-5.24,2.28-10.38,3.73-15.5,2.87-10.15.83-19.13-6.28-26.87s-14.33-14.87-21.11-22.65C308,696,297.71,672.51,296.55,645.28c-.64-15,3-29.42,6.74-43.75s7.4-28.69,11.93-42.77c3.37-10.47,1.15-20.46-.61-30.57-2.88-16.55-6.27-33-9.09-49.58a76.54,76.54,0,0,1-.54-14.92c.1-3.57,2.33-6.05,6-6.11,8-.14,16,.36,23.33,4.2,11.83,6.17,16.05,16.74,11.63,29.31-3.19,9-.13,22.16,6.57,28.22,4,3.61,6.67,2.94,7.4-2.38.53-3.88,0-7.93-.2-11.89-.52-9.27-1.34-18.54-1.61-27.81-.14-4.49,2.13-6,6.5-4.79,18.56,5.26,37.09,10.65,55.61,16,2.4.7,4.69,2,7.12,2.27,7.78.82,11.94,5.46,13.63,12.57,1.61,6.74,2.76,13.58,4.11,20.38Z"/><path class="cls-1" d="M263.78,824.49c32.81.45,65-5.62,97.41-9.06,19.7-2.09,39.41-4.15,59.15-5.76,29.53-2.42,58.1-9.08,86.28-18,15.37-4.86,31.07-8.65,45.45-16.31,4.65-2.48,5.95-1.53,6.9,3.91,3.71,21.13,7.3,42.28,11.12,63.39,1.07,5.88,2.79,11.65,4.22,17.46,2.16,8.78.56,12.3-7.13,17-31.56,19.13-65.66,33-99.33,47.68-13.64,6-27.83,11.8-42.35,14.3a339.3,339.3,0,0,1-60.15,4.62c-12.71-.11-25.52-4.09-38-7.39-10.23-2.7-19.72-3.74-30.22-.37-6.58,2.11-14.41,1-21.58.37-4.7-.43-9.23-2.66-13.84-4-10.76-3.25-16.16-10.6-16.51-21.71a34.67,34.67,0,0,0-10.88-24.92,18.57,18.57,0,0,1-4.77-9.61q-3.73-21.39-6.47-42.95c-1-8.17-.33-8.57,7.74-8.58Z"/><path class="cls-1" d="M317.63,956c3.74-.18,7.47-.43,11.21-.53q55.89-1.53,111.78-3a48.35,48.35,0,0,0,28.85-9.91c20.06-15.65,43.33-25.24,65.87-36.25,5.68-2.77,11.37-5.54,17.2-8,6.33-2.62,10.23-.75,12.3,5.79,4.42,14,8.79,27.92,12.94,42,2.53,8.55,2.4,17-1.55,25.31-3.22,6.73-.56,12.68,3,18.29,7.94,12.32,16,24.54,24,36.84a28,28,0,0,1,3.43,7.53c-99.32-14.92-196.29-38.09-289.36-76Z"/><path class="cls-1" d="M1175.44,902.84c-32.61-83.28-60.83-168.47-108-246.9,12.49.25,22.8,2,32.49,6.44a10.87,10.87,0,0,1,4.95,5.38c12.94,31.51,28.1,62.38,37.89,94.86,13.47,44.66,22.85,90.56,33.94,135.94a21.64,21.64,0,0,1,.24,3.88Z"/><path class="cls-1" d="M1308.34,1013.78c.9-8.76,1.49-17.4,2.74-25.94,2.22-15.21,16.14-21.7,29.49-14,11.58,6.66,17.78,16.3,18,30,.25,12.46,1.57,24.9,2.26,37.35.57,10.3-2.46,13-12.83,14a71.45,71.45,0,0,1-26.54-2.23c-7.67-2.18-10-4.9-10.78-12.88C1309.9,1031.25,1309.13,1022.48,1308.34,1013.78Z"/><path class="cls-1" d="M1292.2,1048.75c-.69,6-3.63,10.12-8.63,11.93a75.07,75.07,0,0,1-17.33,4c-5.32.58-9.55-2.4-12.33-7-7.41-12.33-14-25.38-13.47-39.89.29-8.24,4-16.75,7.8-24.36,2.85-5.78,11.81-6,18.33-1.8,7.9,5.13,14.2,12.06,16.94,21C1287.14,1024.4,1289.36,1036.67,1292.2,1048.75Z"/><path class="cls-1" d="M1423.92,1049.12c-.12,4.47-1.67,7-6.17,8.12-5.65,1.36-11.16,3.3-16.77,4.82-4.59,1.24-8.51-.17-11.82-3.5a47.17,47.17,0,0,1-10.31-51.73,31.25,31.25,0,0,1,19.37-18.23c9-3.12,15.48.14,17.2,9.36C1418.6,1015,1421.12,1032.06,1423.92,1049.12Z"/><path class="cls-1" d="M1435.13,1040.45c-.18-7.81-.92-15.67,4.59-22.38,4.08-5,8.79-8.46,15.54-8.66a93,93,0,0,0,10.91-1.07c19.42-2.89,29.8,7.48,26.65,26.83a41.88,41.88,0,0,1-2.24,8.15c-4.23,11.13-8.75,14.11-20.61,14.2-8.79.06-17.59.3-26.38.47-6.79.14-8-1-8.09-7.58,0-1.66,0-3.33,0-5S1435.25,1042.11,1435.13,1040.45Z"/><path class="cls-1" d="M1226.1,689.86c1.74,2.68,3.79,5.22,5.17,8.07,15.82,32.72,25.25,67.6,33.27,102.78,7.75,34,14,68.42,20.77,102.68.46,2.31-.23,4.84-.39,7.27l-2,.31a53.75,53.75,0,0,1-2.86-6.88q-22.1-83.45-44.06-166.91c-3.73-14.15-7.54-28.27-11.28-42.42a35.54,35.54,0,0,1-.59-4Z"/><path class="cls-1" d="M281.91,807.18c-11,0-21.94.14-32.9-.11-2.21-.05-4.4-1.55-6.6-2.38,1.26-2.32,1.93-5.79,3.86-6.76,8.57-4.33,17.44-8.1,26.32-11.78,10.58-4.38,21.29-8.44,31.93-12.69,10-4,19.63-1.3,29.22,1.48.89.26,1.93,2.74,1.63,3.85-1.67,6.08-3.48,12.14-5.73,18-1.74,4.51-5.39,7-10.38,7.33l-37.34,2.09Z"/><path class="cls-1" d="M1040.25,682.78c2.67,2.83,5.41,5.59,8,8.49,22.79,25.6,38.22,55.45,50.5,87.17,10.26,26.5,20.84,52.88,31.18,79.35.84,2.14.92,4.57,1.35,6.86l-1.53.74c-1.28-1.53-2.9-2.89-3.77-4.62q-42.9-85.9-85.63-171.89a28.16,28.16,0,0,1-1.44-5.32Z"/><path class="cls-1" d="M1244.4,933c-.74-5.46-1.6-10.91-2.19-16.39-8.36-77.89-26.75-153.23-57.28-225.48-.78-1.84-1.91-3.71-2-5.61-.09-2.07.23-4.9,1.55-6,1-.85,4.66-.24,5.7,1,3.55,4.09,7.67,8.31,9.39,13.23,5.33,15.21,9.69,30.75,14.36,46.18a767.68,767.68,0,0,1,26.73,124.77c2.69,20.79,4.18,41.73,6.11,62.61.17,1.9-.45,3.87-.71,5.81Z"/><path class="cls-1" d="M582.36,808.11a16.91,16.91,0,0,1-.76-4.14c2.47-36.06,8.29-71.43,23-104.78,12-27.26,28.79-51.73,45.87-76q10.08-14.29,20.64-28.23c1.86-2.47,4.48-4.36,6.75-6.52l1.55,1.2c-1.17,2.2-2.24,4.47-3.53,6.59-15.5,25.44-32,50.35-46.34,76.42-19.61,35.56-33.9,73.33-41.07,113.53-1,5.57-1.53,11.22-2.54,16.78-.34,1.89-1.49,3.63-2.27,5.43Z"/><path class="cls-1" d="M1190.38,800.78,1115.31,666c9.89-.46,18.2,1.2,22.9,9.49,6.87,12.12,13.51,24.45,19.14,37.17,11.48,26,22.27,52.25,33.2,78.47,1.15,2.76,1.31,5.94,1.93,8.93Z"/><path class="cls-1" d="M938.65,804.11c-1.08-1.9-2.66-3.68-3.18-5.72a441.55,441.55,0,0,1-12.71-78.17c-1.12-15.09,2.73-29.58,4.65-44.29,1.71-13.19,4.38-26.25,6.77-39.34,1.69-9.19,8.42-12.5,16.68-8.45,3.74,1.84,5.23,4.7,3.52,8.57A73.15,73.15,0,0,1,949,646.85c-18.66,29-23.09,61-18.4,94.39,2.49,17.75,6.62,35.27,9.86,52.92.56,3.07.34,6.3.48,9.45Z"/><path class="cls-1" d="M699.5,865.49V841.23c0-8.48,0-17,0-25.44,0-6.9,2.16-12.74,8-16.79,6.21-4.27,12.64-1.72,13.62,5.7,1.6,12,3.19,24.09,4,36.19.23,3.4-1.29,8-3.67,10.3-5.06,5-11.16,8.86-17,13C703.59,864.94,702.09,864.89,699.5,865.49Z"/><path class="cls-1" d="M1127.4,913.48c-19.11-9.69-78.75-122.37-74.6-140.55Q1090.11,843.21,1127.4,913.48Z"/><path class="cls-1" d="M491.52,753.63c-.08-8.39,9.63-15.35,17.35-12.3,7.1,2.82,14.24,5.58,21.14,8.85,8.13,3.87,8.47,10.92.64,15.48a224.48,224.48,0,0,1-21.4,10.67c-4.76,2.11-9-.67-11.17-4.29-3.31-5.54-5.31-11.87-7.87-17.86Z"/><path class="cls-1" d="M657.18,748.23c13.08-58,50.43-97.52,98.29-129C715.79,657,681.55,698.81,657.18,748.23Z"/><path class="cls-1" d="M1308,708.4c6.56,18,12.63,36.19,13,55.58.42,25.3.26,50.61.2,75.92,0,3-1,6-1.48,8.92l-2.3.08c-.43-2.67-1.25-5.35-1.2-8,.19-11.48,2-23.1.73-34.39-3-26.77-7.41-53.38-11.29-80.06-.52-3.62-1.7-7.21-1.74-10.82,0-2.58,1.34-5.17,2.08-7.75Z"/><path class="cls-1" d="M643.42,978.63c-6.57-11.73-12.22-78.53-8.1-95.64C645.17,891.72,651.52,966.66,643.42,978.63Z"/><path class="cls-1" d="M750.52,579.35,685.2,643.09C688,623.8,732.85,579.17,750.52,579.35Z"/><path class="cls-1" d="M615.93,891.59q6,46.9,12,93.82l-1.24.65c-.75-.87-1.91-1.63-2.2-2.64-8.19-29-12.77-58.48-11.44-88.71a12.89,12.89,0,0,1,1.18-3.46Z"/><path class="cls-1" d="M994.6,781.87c-11.08-38.89-22.84-77.72-9.21-118.65-1.71,19.8-3.14,39.62.25,59.37s7,39.49,10.47,59.24Z"/><path class="cls-1" d="M723.7,735.64c-.9,13.51.14,27.27-4.74,40.3-1.18,3.14-5.19,5.48-8.31,7.56-2.73,1.81-6.24-.37-5.3-3.23,4.89-14.76,10.19-29.38,15.39-44,.14-.38.67-.63,1-.94Z"/><path class="cls-1" d="M791.66,721.7v70.74l-1.39.58c-1.4-3.1-3.28-6.08-4.12-9.34-3.77-14.47-2.56-29,.31-43.44,1.24-6.25,2.29-12.54,3.43-18.81Z"/><path class="cls-1" d="M762.54,777.88c-1.58-2.73-3.89-5-4.09-7.34-1.37-15.6,4.15-29.06,13.6-41.68C774.38,737.17,767.86,773.1,762.54,777.88Z"/><path class="cls-1" d="M1164.58,1053.84c-.52-2.19-1.49-4.38-1.5-6.57-.12-18-.07-36,0-53.95,0-.75.31-1.5,1.67-2.67.82,1.55,2,3,2.4,4.67,4.07,16.86,3.8,34,2.54,51.12-.2,2.62-2.48,5.1-3.8,7.64Z"/><path class="cls-1" d="M1009.68,865c-9.28-3.45-29.29-41.54-26.79-51.9,1.57,1.3,3.34,2.08,4,3.41,7.76,15.65,15.34,31.37,23,47.08C1010,863.79,1009.78,864.17,1009.68,865Z"/><path class="cls-1" d="M681.14,798.76c-2.56-5.23,3.85-28.74,8.33-31.57C692.12,770.85,685.66,796.05,681.14,798.76Z"/><path d="M580.2,218.74l18.46,5.16q57.4,16.13,114.8,32.28a14.13,14.13,0,0,1,5,2.05c1.09.87,1.46,2.65,2.15,4-1.53.62-3.2,2-4.56,1.74-6.69-1.29-13.35-2.79-19.91-4.63q-56.21-15.76-112.34-31.75a13.79,13.79,0,0,1-5.39-2.41,5.16,5.16,0,0,1-1.06-4.33C577.6,219.9,579.41,219.29,580.2,218.74Z"/><path d="M565.51,222.61l-51.06-13.94c0-.57,0-1.14,0-1.71,2.41-.67,4.82-1.83,7.25-1.92,16-.58,29.71,5.89,42.53,14.72C564.54,220,564.61,220.57,565.51,222.61Z"/><path d="M941.9,972.93c.13-28.6,6.45-48.85,17.86-67.53,5.92-9.68,15-14.26,26.18-13,10.92,1.19,18,7.68,21.6,18.14,6,17.36,11,35,11.16,53.45,0,5.54-1.4,11.17-2.74,16.62-2.78,11.28-5.29,22.7-9.1,33.65-5.28,15.16-16.81,23.44-30.67,23.8-10,.25-17.32-4.24-21-13.18C947.59,1006.14,941.78,986.91,941.9,972.93Z"/></g></g></svg>