<svg xmlns="http://www.w3.org/2000/svg" viewBox="0 0 2001 1088"><defs><style>.cls-1{fill:#fff;}</style></defs><g id="Layer_2" data-name="Layer 2"><g id="Layer_1-2" data-name="Layer 1"><path d="M0,684.09v-23c.63-1.77,1.69-3.52,1.83-5.33a178.68,178.68,0,0,1,20-69.06c22.66-43.65,55.26-78.83,95-107,27.39-19.44,56.51-36.44,84.83-54.55,2.7-1.73,5.28-3.65,8.59-5.95-5.47-1.93-10-3.55-14.5-5.14-27.47-9.62-55.2-18.54-82.32-29C80.56,372.3,51.83,352.09,23,332.33c-9.54-6.54-13.08-16.56-12.54-27.9a91.45,91.45,0,0,1,1.91-13.33Q34.13,181.9,56,72.72C59.27,56.59,61.6,40.19,69,25.2,76.89,9.23,89.61.59,107.61.86c20.48.31,41,.54,61.42,1.73,37.39,2.17,74.91,3.58,112.08,7.93,47.59,5.57,95,13.18,142.27,20.9q91.9,15,183.54,31.67C667.64,74.27,728.3,85.9,788.69,98.73c65.58,13.94,130.92,29.09,196.2,44.41,129.91,30.5,259.65,61.67,388.43,96.75C1522.8,280.6,1671.44,324,1817,377.21c39.5,14.45,78.65,29.94,117.52,46a199.73,199.73,0,0,1,53.34,33c8.21,7,13.78,15.73,12.39,27.29-.67,5.59-1.24,11.21-2.45,16.69-2.19,9.9-5.17,19.64-7.22,29.56-14.47,70.12-32.16,139.46-50.67,208.59-3.68,13.74-7.93,27.18-17.27,38.38-5.87,7-13,10.22-22.13,7.75-14.41-3.93-25,.35-34.2,12.52-14.89,19.6-30.21,39.09-47.2,56.85-44.1,46-97,80.2-154.41,106.94a1118.48,1118.48,0,0,1-187.07,67.45c-51.9,13.71-104.11,25.65-157.47,31.65-56.1,6.3-112.28,11.9-168.46,17.4-61.53,6-123.29,8.56-185.07,8.74-42.6.12-85.26-1.48-127.79-4-47.53-2.76-95.07-6.23-142.37-11.52-45.13-5-90.09-12-134.88-19.62-55.16-9.35-109.58-22.11-162.83-39.59-42.31-13.89-82.64-32.47-123-51.06-37-17.07-74-34.16-108.9-55.5C116.6,874,72.65,836.22,39.06,787.29,19.66,759,6.2,728.36,2.61,693.85,2.27,690.54.89,687.34,0,684.09Zm470.25-492.7-.68,2a48.66,48.66,0,0,1-7-1.18c-44.83-14.35-89.76-28.38-134.4-43.28C271.52,130,215.47,109.27,161.39,83.76,137,72.27,113.55,59,89.73,46.34c-6.63-3.52-7.76-3.73-11.36,3C74.45,56.59,70,64,68.19,71.94c-3.89,16.82-6.65,33.94-9.14,51-5.43,37.4-10.66,74.83-15.45,112.32-2.14,16.81-4.06,33.77-4.21,50.68-.29,32.25,14.94,53.73,45,67.5C152.1,384.56,222.2,409.14,292.62,433c131,44.44,264.14,81.81,397.65,117.64,89.32,24,179.63,44.25,269.45,66.34,79.53,19.55,159.61,36.54,240,52.35,73.14,14.39,146.13,29.6,219.37,43.5,60.65,11.52,121.5,22.11,182.41,32.25,36.77,6.12,73.78,10.93,110.76,15.68,26.42,3.39,52.93,6.24,79.48,8.32,23.06,1.81,46.24,2.09,69.35,3.29,11,.58,21.78-.56,31.62-5.52,16.71-8.43,31.46-19,36.1-38.81.77-3.24,1.25-6.54,2-9.77,10.92-44.09,22.25-88.08,32.66-132.3,6-25.58,10.57-51.52,15.77-77.3.78-3.88.75-6.79-4.7-6.89-19.81-.35-39.61-1.39-59.42-1.51a872.47,872.47,0,0,1-125.43-9.68c-62.53-9.48-124.84-20.32-187.25-30.6a29.47,29.47,0,0,1-3.5-1,21.07,21.07,0,0,1,8.83-.41c9.89,1.4,19.74,3.09,29.64,4.37q45.83,5.89,91.69,11.53c30.08,3.66,60.14,7.6,90.3,10.49,24.34,2.33,48.81,4.22,73.25,4.59,25.28.38,50.59-1.24,75.88-2.13,4.92-.17,5.77-2,3.62-6.52a42.31,42.31,0,0,0-17.9-19.57c-17.59-9.81-35-20.08-52.8-29.38-19.46-10.14-38.67-21.38-59.21-28.67-69.3-24.58-139-48.09-208.82-71.1-53.07-17.48-106.12-35.34-160-49.91-111.78-30.22-224.05-58.64-336.24-87.31-113.66-29-227.64-56.8-342.51-80.66Q695,93.65,594.83,75C546.24,66,497.44,57.94,448.59,50.42c-46.39-7.15-93-13.22-139.5-19.43-29.21-3.9-58.5-7.22-87.77-10.71-24.64-2.93-49.28-6-74.19-3.34a163.34,163.34,0,0,0-49.52,13c-4.72,2.11-5,3.43-1,6.51,4.56,3.62,9,7.66,14,10.37C132.77,58.65,154.7,71,177.54,81.44,243.6,111.53,311.4,137.28,380.35,160q42.16,13.89,84.24,28.05C466.62,188.73,468.37,190.26,470.25,191.39Z"/><path class="cls-1" d="M0,684.09c.89,3.25,2.27,6.45,2.61,9.76C6.2,728.36,19.66,759,39.06,787.29,72.65,836.22,116.6,874,166.88,904.79c34.85,21.34,71.87,38.43,108.9,55.5,40.34,18.59,80.67,37.17,123,51.06,53.25,17.48,107.67,30.24,162.83,39.59,44.79,7.6,89.75,14.58,134.88,19.62,47.3,5.29,94.84,8.76,142.37,11.52,42.53,2.48,85.19,4.08,127.79,4,61.78-.18,123.54-2.73,185.07-8.74,56.18-5.5,112.36-11.1,168.46-17.4,53.36-6,105.57-17.94,157.47-31.65A1118.48,1118.48,0,0,0,1664.7,960.8c57.4-26.74,110.31-60.89,154.41-106.94,17-17.76,32.31-37.25,47.2-56.85,9.24-12.17,19.79-16.45,34.2-12.52,9.09,2.47,16.26-.71,22.13-7.75,9.34-11.2,13.59-24.64,17.27-38.38,18.51-69.13,36.2-138.47,50.67-208.59,2.05-9.92,5-19.66,7.22-29.56,1.21-5.48,1.78-11.1,2.45-16.69,1.39-11.56-4.18-20.26-12.39-27.29a199.73,199.73,0,0,0-53.34-33c-38.87-16.07-78-31.56-117.52-46C1671.44,324,1522.8,280.6,1373.32,239.89c-128.78-35.08-258.52-66.25-388.43-96.75-65.28-15.32-130.62-30.47-196.2-44.41C728.3,85.9,667.64,74.27,606.92,63.09Q515.33,46.23,423.38,31.42c-47.31-7.72-94.68-15.33-142.27-20.9C243.94,6.17,206.42,4.76,169,2.59,148.59,1.4,128.09,1.17,107.61.86,89.61.59,76.89,9.23,69,25.2c-7.4,15-9.73,31.39-13,47.52Q34.13,181.89,12.35,291.1a91.45,91.45,0,0,0-1.91,13.33c-.54,11.34,3,21.36,12.54,27.9,28.85,19.76,57.58,40,90.43,52.66,27.12,10.49,54.85,19.41,82.32,29,4.52,1.59,9,3.21,14.5,5.14-3.31,2.3-5.89,4.22-8.59,5.95-28.32,18.11-57.44,35.11-84.83,54.55-39.72,28.2-72.32,63.38-95,107a178.68,178.68,0,0,0-20,69.06c-.14,1.81-1.2,3.56-1.83,5.33V0H2001V1088H0Z"/><path class="cls-1" d="M470.25,191.39c-1.88-1.13-3.63-2.66-5.66-3.34Q422.5,173.91,380.35,160c-69-22.72-136.75-48.47-202.81-78.56C154.7,71,132.77,58.65,110.6,46.82c-5.08-2.71-9.48-6.75-14-10.37-3.9-3.08-3.67-4.4,1-6.51a163.34,163.34,0,0,1,49.52-13c24.91-2.65,49.55.41,74.19,3.34,29.27,3.49,58.56,6.81,87.77,10.71,46.54,6.21,93.11,12.28,139.5,19.43C497.44,57.94,546.24,66,594.83,75Q694.93,93.7,794.66,114.35C909.53,138.21,1023.51,166,1137.17,195c112.19,28.67,224.46,57.09,336.24,87.31,53.89,14.57,106.94,32.43,160,49.91,69.84,23,139.52,46.52,208.82,71.1,20.54,7.29,39.75,18.53,59.21,28.67,17.85,9.3,35.21,19.57,52.8,29.38a42.31,42.31,0,0,1,17.9,19.57c2.15,4.57,1.3,6.35-3.62,6.52-25.29.89-50.6,2.51-75.88,2.13-24.44-.37-48.91-2.26-73.25-4.59-30.16-2.89-60.22-6.83-90.3-10.49q-45.87-5.58-91.69-11.53c-9.9-1.28-19.75-3-29.64-4.37a21.07,21.07,0,0,0-8.83.41,29.47,29.47,0,0,0,3.5,1c62.41,10.28,124.72,21.12,187.25,30.6a872.47,872.47,0,0,0,125.43,9.68c19.81.12,39.61,1.16,59.42,1.51,5.45.1,5.48,3,4.7,6.89-5.2,25.78-9.75,51.72-15.77,77.3-10.41,44.22-21.74,88.21-32.66,132.3-.8,3.23-1.28,6.53-2,9.77-4.64,19.79-19.39,30.38-36.1,38.81-9.84,5-20.59,6.1-31.62,5.52-23.11-1.2-46.29-1.48-69.35-3.29-26.55-2.08-53.06-4.93-79.48-8.32-37-4.75-74-9.56-110.76-15.68C1540.54,735,1479.69,724.38,1419,712.86c-73.24-13.9-146.23-29.11-219.37-43.5-80.34-15.81-160.42-32.8-240-52.35-89.82-22.09-180.13-42.37-269.45-66.34C556.76,514.84,423.62,477.47,292.62,433,222.2,409.14,152.1,384.56,84.35,353.48c-30-13.77-45.25-35.25-45-67.5.15-16.91,2.07-33.87,4.21-50.68,4.79-37.49,10-74.92,15.45-112.32,2.49-17.1,5.25-34.22,9.14-51C70,64,74.45,56.59,78.37,49.3c3.6-6.69,4.73-6.48,11.36-3C113.55,59,137,72.27,161.39,83.76c54.08,25.51,110.13,46.22,166.8,65.14,44.64,14.9,89.57,28.93,134.4,43.28a48.66,48.66,0,0,0,7,1.18ZM577.43,220l-.84,2.92c2.75,1.73,5.28,4.19,8.27,5.06q40,11.67,80.11,22.82c16,4.47,32.11,8.65,48.18,12.93,3.34.88,6.68,1.5,8.21-3.75-2.91-1.35-5.75-3.14-8.84-4q-63.84-18.09-127.75-35.88C582.49,219.42,579.88,220,577.43,220Zm-11.88,2.78c-1-2-1.08-2.59-1.41-2.85-12.69-10.05-27-15.45-43.32-14.86-2.23.08-4.41,1.43-6.62,2.2l.12,1.53Z"/><path d="M577.43,220c2.45,0,5.06-.55,7.34.08q63.91,17.79,127.75,35.88c3.09.88,5.93,2.67,8.84,4-1.53,5.25-4.87,4.63-8.21,3.75-16.07-4.28-32.16-8.46-48.18-12.93Q624.86,239.57,584.86,228c-3-.87-5.52-3.33-8.27-5.06Z"/><path d="M565.55,222.75l-51.23-14-.12-1.53c2.21-.77,4.39-2.12,6.62-2.2,16.3-.59,30.63,4.81,43.32,14.86C564.47,220.16,564.56,220.71,565.55,222.75Z"/></g></g></svg>