<?xml version="1.0" encoding="utf-8"?>
<!-- Generator: Adobe Illustrator 25.2.1, SVG Export Plug-In . SVG Version: 6.00 Build 0)  -->
<svg version="1.1" id="Layer_1" xmlns="http://www.w3.org/2000/svg" xmlns:xlink="http://www.w3.org/1999/xlink" x="0px" y="0px"
	 viewBox="0 0 1999.6 1084.9" style="enable-background:new 0 0 1999.6 1084.9;" xml:space="preserve">
<style type="text/css">
	.st0{fill:#010101;}
	.st1{display:none;fill:#FFFFFF;}
</style>
<g>
	<path class="st0" d="M1,686.8c-0.5-4.8-1.5-14.3-0.6-26.3c0.1-1.5,0.3-2.9,0.6-5.7c0,0,1-11.1,2.7-20c3.3-17.1,9.2-33.4,17.3-49.1
		c22.7-43.6,55.3-78.8,95-107c27.4-19.4,56.5-36.4,84.8-54.6c2.7-1.7,5.3-3.6,8.6-5.9c-5.5-1.9-10-3.6-14.5-5.1
		c-27.5-9.6-55.2-18.5-82.3-29c-32.8-12.7-61.6-32.9-90.4-52.7c-9.5-6.5-13.1-16.6-12.5-27.9c0.2-4.5,1-8.9,1.9-13.3
		c14.5-72.8,29-145.6,43.6-218.4c3.2-16.1,5.6-32.5,13-47.5C76.1,8.3,88.8-0.3,106.8,0c20.5,0.3,41,0.5,61.4,1.7
		c37.4,2.2,74.9,3.6,112.1,7.9c47.6,5.6,95,13.2,142.3,20.9c61.3,10,122.5,20.4,183.5,31.7C666.8,73.4,727.5,85,787.9,97.8
		c65.6,13.9,130.9,29.1,196.2,44.4c129.9,30.5,259.6,61.7,388.4,96.7c149.5,40.7,298.1,84.1,443.7,137.3
		c39.5,14.5,78.6,29.9,117.5,46c19.4,8,37.3,19.3,53.3,33c8.2,7,13.8,15.7,12.4,27.3c-0.7,5.6-1.2,11.2-2.5,16.7
		c-2.2,9.9-5.2,19.6-7.2,29.6c-14.5,70.1-32.2,139.5-50.7,208.6c-3.7,13.7-7.9,27.2-17.3,38.4c-5.9,7-13,10.2-22.1,7.8
		c-14.4-3.9-25,0.4-34.2,12.5c-14.9,19.6-30.2,39.1-47.2,56.8c-44.1,46.1-97,80.2-154.4,106.9c-60.2,28.1-122.7,50.4-187.1,67.4
		c-71.5,18.9-133.3,28.1-157.5,31.6c-13.2,1.9-43.6,6-80,9.8c-6.5,0.7-23.1,2.4-44.7,4.2c-1,0.1-21.7,1.8-43.8,3.4
		c-70.6,4.9-122.4,8.6-185.1,8.7c-42.6,0.1-85.3-1.5-127.8-4c-47.5-2.8-95.1-6.2-142.4-11.5c-45.1-5-90.1-12-134.9-19.6
		c-38.3-6.5-93.1-17.6-162.8-39.6c-33.7-10.6-75.1-23.8-127.4-48.3c-23.7-11.1-60.5-28.6-104.5-58.2c-54-36.4-96.2-71.5-127.8-117.5
		c-23.1-33.7-31.3-64.4-34.6-81.6c-1.1-5.8-1.9-11.9-1.9-11.9C1.6,691.4,1.3,689.3,1,686.8z M469.4,190.5c-0.2,0.7-0.5,1.3-0.7,2
		c-2.3-0.4-4.8-0.5-7-1.2c-44.8-14.4-89.8-28.4-134.4-43.3c-56.7-18.9-112.7-39.6-166.8-65.1c-24.4-11.5-47.8-24.8-71.7-37.4
		c-6.6-3.5-7.8-3.7-11.4,3c-3.9,7.3-8.3,14.7-10.2,22.6c-3.9,16.8-6.6,33.9-9.1,51c-5.4,37.4-10.7,74.8-15.5,112.3
		c-2.1,16.8-4.1,33.8-4.2,50.7c-0.3,32.3,14.9,53.7,45,67.5c67.7,31.1,137.8,55.7,208.3,79.5c131,44.4,264.1,81.8,397.7,117.6
		c89.3,24,179.6,44.2,269.5,66.3c79.5,19.6,159.6,36.5,239.9,52.4c73.1,14.4,146.1,29.6,219.4,43.5c60.7,11.5,121.5,22.1,182.4,32.2
		c36.8,6.1,73.8,10.9,110.8,15.7c26.4,3.4,52.9,6.2,79.5,8.3c23.1,1.8,46.2,2.1,69.4,3.3c11,0.6,21.8-0.6,31.6-5.5
		c16.7-8.4,31.5-19,36.1-38.8c0.8-3.2,1.2-6.5,2-9.8c10.9-44.1,22.2-88.1,32.7-132.3c6-25.6,10.6-51.5,15.8-77.3
		c0.8-3.9,0.7-6.8-4.7-6.9c-19.8-0.4-39.6-1.4-59.4-1.5c-42.1-0.3-83.9-3.4-125.4-9.7c-62.5-9.5-124.8-20.3-187.2-30.6
		c-1.2-0.2-2.3-0.7-3.5-1c3.1-0.8,6-0.8,8.8-0.4c9.9,1.4,19.7,3.1,29.6,4.4c30.6,3.9,61.1,7.8,91.7,11.5
		c30.1,3.7,60.1,7.6,90.3,10.5c24.3,2.3,48.8,4.2,73.3,4.6c25.3,0.4,50.6-1.2,75.9-2.1c4.9-0.2,5.8-2,3.6-6.5
		c-3.9-8.4-9.8-15-17.9-19.6c-17.6-9.8-34.9-20.1-52.8-29.4c-19.5-10.1-38.7-21.4-59.2-28.7c-69.3-24.6-139-48.1-208.8-71.1
		c-53.1-17.5-106.1-35.3-160-49.9c-111.8-30.2-224-58.6-336.2-87.3c-113.7-29-227.6-56.8-342.5-80.7C727.6,99.5,661,86.4,594.3,74
		c-48.6-9.1-97.4-17.1-146.2-24.6c-46.4-7.1-93-13.2-139.5-19.4c-29.2-3.9-58.5-7.2-87.8-10.7c-24.6-2.9-49.3-6-74.2-3.3
		c-17.2,1.8-33.7,6-49.5,13c-4.7,2.1-5,3.4-1.1,6.5c4.6,3.6,9,7.7,14,10.4c22.2,11.8,44.1,24.2,66.9,34.6
		c66.1,30.1,133.9,55.8,202.8,78.6c28.1,9.3,56.2,18.6,84.2,28C465.8,187.8,467.6,189.4,469.4,190.5z"/>
	<path class="st1" d="M-0.8,683.2c0.9,3.3,2.3,6.5,2.6,9.8c3.6,34.5,17,65.2,36.4,93.4c31.6,46,73.8,81.1,127.8,117.5
		c44,29.6,80.8,47.1,104.5,58.2c52.2,24.5,93.7,37.8,127.4,48.3c69.7,21.9,124.5,33.1,162.8,39.6c44.8,7.6,89.8,14.6,134.9,19.6
		c47.3,5.3,94.8,8.8,142.4,11.5c42.5,2.5,85.2,4.1,127.8,4c61.8-0.2,123.5-2.7,185.1-8.7c56.2-5.5,112.4-11.1,168.5-17.4
		c53.4-6,105.6-17.9,157.5-31.6c64.4-17,126.8-39.4,187.1-67.4c57.4-26.7,110.3-60.9,154.4-106.9c17-17.8,32.3-37.2,47.2-56.8
		c9.2-12.2,19.8-16.5,34.2-12.5c9.1,2.5,16.3-0.7,22.1-7.8c9.3-11.2,13.6-24.6,17.3-38.4c18.5-69.1,36.2-138.5,50.7-208.6
		c2-9.9,5-19.7,7.2-29.6c1.2-5.5,1.8-11.1,2.5-16.7c1.4-11.6-4.2-20.3-12.4-27.3c-16-13.7-34-25-53.3-33
		c-38.9-16.1-78-31.6-117.5-46c-145.6-53.3-294.2-96.6-443.7-137.3c-128.8-35.1-258.5-66.2-388.4-96.7
		C919,127.1,853.7,111.9,788.1,98c-60.4-12.8-121-24.5-181.8-35.6C545.2,51.2,484,40.7,422.8,30.7C375.5,23,328.1,15.4,280.5,9.8
		C243.3,5.5,205.8,4,168.4,1.9C148,0.7,127.5,0.5,107,0.2C89-0.1,76.3,8.6,68.4,24.5c-7.4,15-9.7,31.4-13,47.5
		c-14.6,72.8-29.2,145.6-43.7,218.4c-0.9,4.4-1.7,8.9-1.9,13.3c-0.5,11.3,3,21.4,12.5,27.9c28.8,19.8,57.6,40,90.4,52.7
		c27.1,10.5,54.9,19.4,82.3,29c4.5,1.6,9,3.2,14.5,5.1c-3.3,2.3-5.9,4.2-8.6,5.9c-28.3,18.1-57.4,35.1-84.8,54.6
		c-39.7,28.2-72.3,63.4-95,107C9.9,607.6,3,630.5,1.1,655c-0.1,1.8-1.2,3.6-1.8,5.3C-0.8,439.8-0.8,219.5-0.8-0.9
		c667,0,1333.9,0,2001,0c0,362.6,0,725.2,0,1088c-666.9,0-1334,0-2001,0C-0.8,952.5-0.8,817.9-0.8,683.2z"/>
	<path class="st1" d="M469.4,190.5c-1.9-1.1-3.6-2.7-5.7-3.3c-28.1-9.4-56.1-18.8-84.2-28c-69-22.7-136.7-48.5-202.8-78.6
		c-22.8-10.4-44.8-22.8-66.9-34.6c-5.1-2.7-9.5-6.7-14-10.4c-3.9-3.1-3.7-4.4,1.1-6.5c15.8-7,32.3-11.2,49.5-13
		c24.9-2.7,49.6,0.4,74.2,3.3c29.3,3.5,58.6,6.8,87.8,10.7c46.5,6.2,93.1,12.3,139.5,19.4C496.8,57,545.5,65,594.1,74.1
		c66.7,12.4,133.4,25.5,199.8,39.3c114.9,23.9,228.9,51.6,342.5,80.7c112.2,28.7,224.5,57.1,336.2,87.3
		c53.9,14.6,106.9,32.4,160,49.9c69.8,23,139.5,46.5,208.8,71.1c20.5,7.3,39.8,18.5,59.2,28.7c17.9,9.3,35.2,19.6,52.8,29.4
		c8.1,4.5,14,11.2,17.9,19.6c2.2,4.6,1.3,6.3-3.6,6.5c-25.3,0.9-50.6,2.5-75.9,2.1c-24.4-0.4-48.9-2.3-73.3-4.6
		c-30.2-2.9-60.2-6.8-90.3-10.5c-30.6-3.7-61.1-7.6-91.7-11.5c-9.9-1.3-19.8-3-29.6-4.4c-2.9-0.4-5.8-0.4-8.8,0.4
		c1.2,0.3,2.3,0.8,3.5,1c62.4,10.3,124.7,21.1,187.2,30.6c41.5,6.3,83.4,9.4,125.4,9.7c19.8,0.1,39.6,1.2,59.4,1.5
		c5.4,0.1,5.5,3,4.7,6.9c-5.2,25.8-9.7,51.7-15.8,77.3c-10.4,44.2-21.7,88.2-32.7,132.3c-0.8,3.2-1.3,6.5-2,9.8
		c-4.6,19.8-19.4,30.4-36.1,38.8c-9.8,5-20.6,6.1-31.6,5.5c-23.1-1.2-46.3-1.5-69.4-3.3c-26.5-2.1-53.1-4.9-79.5-8.3
		c-37-4.7-74-9.6-110.8-15.7c-60.9-10.1-121.8-20.7-182.4-32.2c-73.2-13.9-146.2-29.1-219.4-43.5c-80.3-15.8-160.4-32.8-239.9-52.4
		c-89.8-22.1-180.1-42.4-269.5-66.3C556,513.9,422.8,476.6,291.8,432.1c-70.4-23.9-140.5-48.5-208.3-79.5
		c-30-13.8-45.3-35.3-45-67.5c0.1-16.9,2.1-33.9,4.2-50.7c4.8-37.5,10-74.9,15.5-112.3c2.5-17.1,5.2-34.2,9.1-51
		c1.8-7.9,6.3-15.3,10.2-22.6c3.6-6.7,4.7-6.5,11.4-3c23.8,12.6,47.3,25.9,71.7,37.4c54.1,25.5,110.1,46.2,166.8,65.1
		c44.6,14.9,89.6,28.9,134.4,43.3c2.2,0.7,4.7,0.8,7,1.2C469,191.8,469.2,191.1,469.4,190.5z M576.6,219.1c-0.3,1-0.6,1.9-0.8,2.9
		c2.7,1.7,5.3,4.2,8.3,5.1c26.7,7.8,53.4,15.4,80.1,22.8c16,4.5,32.1,8.7,48.2,12.9c3.3,0.9,6.7,1.5,8.2-3.7c-2.9-1.3-5.8-3.1-8.8-4
		c-42.6-12.1-85.1-24-127.7-35.9C581.7,218.5,579.1,219.1,576.6,219.1z M564.8,221.8c-1-2-1.1-2.6-1.4-2.9
		c-12.7-10-27-15.4-43.3-14.9c-2.2,0.1-4.4,1.4-6.6,2.2c0,0.5,0.1,1,0.1,1.5C530.2,212.4,546.8,217,564.8,221.8z"/>
	<path class="st0" d="M576.6,219.1c2.5,0,5.1-0.6,7.3,0.1c42.6,11.9,85.2,23.8,127.7,35.9c3.1,0.9,5.9,2.7,8.8,4
		c-1.5,5.3-4.9,4.6-8.2,3.7c-16.1-4.3-32.2-8.5-48.2-12.9c-26.7-7.5-53.5-15-80.1-22.8c-3-0.9-5.5-3.3-8.3-5.1
		C576.1,221,576.4,220,576.6,219.1z"/>
	<path class="st0" d="M564.8,221.8c-17.9-4.9-34.6-9.4-51.2-14c0-0.5-0.1-1-0.1-1.5c2.2-0.8,4.4-2.1,6.6-2.2
		c16.3-0.6,30.6,4.8,43.3,14.9C563.7,219.3,563.8,219.8,564.8,221.8z"/>
</g>
</svg>
