<svg xmlns="http://www.w3.org/2000/svg" viewBox="0 0 2000 2000"><defs><style>.cls-1{fill:#fff;}</style></defs><g id="Layer_2" data-name="Layer 2"><g id="Layer_1-2" data-name="Layer 1"><path class="cls-1" d="M0,1120V0H2000V930c-.59-.53-1.49-1-1.72-1.62-3.22-9.32-10.21-15.34-17.85-20.91-25.64-18.68-54-32.14-83.44-43.43-134.12-51.38-270.49-96-408.7-135-121.68-34.28-243.75-67.17-366.81-96.27-92.76-21.93-185.37-44.58-278.38-65.41C778.82,553,714,540.79,649.36,528.25q-71.55-13.87-143.42-26.06c-63.51-10.68-127.08-21-190.8-30.37-31.76-4.65-63.85-7.6-95.89-9.71-36.2-2.38-72.52-3.09-108.79-4.25-19.69-.64-34.1,8.31-42.16,26.18a124.88,124.88,0,0,0-8.21,26.08c-7.78,38.15-15,76.43-22.58,114.61-8.53,42.75-17.33,85.45-26,128.17-3.09,15.23.35,28.92,13.31,37.71,20.76,14.09,41.88,27.86,63.91,39.83,26.51,14.41,55.68,22.73,84.16,32.48,12.22,4.18,24.39,8.5,37.72,13.14-3,2.19-5.07,3.83-7.26,5.19-19.83,12.26-39.8,24.28-59.5,36.72-40.08,25.33-75.43,55.89-103.07,94.78-21.81,30.7-36.5,64.12-39,102.22C1.71,1116.67.63,1118.3,0,1120Z"/><path class="cls-1" d="M2000,948V2000H0V1139c.66,1.75,1.65,3.45,1.92,5.25,1,6.42,1.41,12.92,2.6,19.29,6.46,34.65,22.39,65,43.38,92.79,34.34,45.46,77.61,80.78,126.39,109.64,43.07,25.48,89,45,134.3,66.08a835.12,835.12,0,0,0,135.68,49.74c74.84,20.09,151.16,33.25,228,42.87,64.11,8,128.48,13.68,193.13,15.49,31,.87,61.91,3.41,92.84,3.09,44.27-.46,88.55-2.41,132.78-4.57,27.93-1.37,55.8-4,83.66-6.57,23.61-2.16,47.16-5,70.74-7.5,26.43-2.81,52.93-5.09,79.29-8.47a1011.37,1011.37,0,0,0,126.76-24.38c27-7,53.84-14.35,80.55-22.24,13.52-4,26.59-9.52,39.85-14.4,39.18-14.43,78.4-28.72,115.28-48.63,53.26-28.73,102.77-62.51,143.39-107.87,14.08-15.72,26.56-32.89,39.63-49.52,6.09-7.75,13.91-10.41,23.41-8.93,2.47.38,5,.69,7.38,1.28,8.78,2.15,15.51-.85,21.2-7.6,7.94-9.41,12.51-20.42,15.67-32,19.65-72.42,38.18-145.12,53.2-218.67C1993.43,971.26,1997,959.67,2000,948Z"/><path d="M2000,948c-3,11.71-6.57,23.3-9,35.13-15,73.55-33.55,146.25-53.2,218.67-3.16,11.63-7.73,22.64-15.67,32-5.69,6.75-12.42,9.75-21.2,7.6-2.42-.59-4.91-.9-7.38-1.28-9.5-1.48-17.32,1.18-23.41,8.93-13.07,16.63-25.55,33.8-39.63,49.52-40.62,45.36-90.13,79.14-143.39,107.87-36.88,19.91-76.1,34.2-115.28,48.63-13.26,4.88-26.33,10.41-39.85,14.4-26.71,7.89-53.6,15.21-80.55,22.24a1011.37,1011.37,0,0,1-126.76,24.38c-26.36,3.38-52.86,5.66-79.29,8.47-23.58,2.5-47.13,5.34-70.74,7.5-27.86,2.54-55.73,5.2-83.66,6.57-44.23,2.16-88.51,4.11-132.78,4.57-30.93.32-61.88-2.22-92.84-3.09-64.65-1.81-129-7.46-193.13-15.49-76.82-9.62-153.14-22.78-228-42.87A835.12,835.12,0,0,1,308.59,1432c-45.26-21-91.23-40.6-134.3-66.08-48.78-28.86-92-64.18-126.39-109.64-21-27.79-36.92-58.14-43.38-92.79-1.19-6.37-1.62-12.87-2.6-19.29-.27-1.8-1.26-3.5-1.92-5.25v-19c.63-1.67,1.71-3.3,1.82-5,2.46-38.1,17.15-71.52,39-102.22,27.64-38.89,63-69.45,103.07-94.78,19.7-12.44,39.67-24.46,59.5-36.72,2.19-1.36,4.22-3,7.26-5.19-13.33-4.64-25.5-9-37.72-13.14-28.48-9.75-57.65-18.07-84.16-32.48-22-12-43.15-25.74-63.91-39.83-13-8.79-16.4-22.48-13.31-37.71,8.67-42.72,17.47-85.42,26-128.17,7.63-38.18,14.8-76.46,22.58-114.61A124.88,124.88,0,0,1,68.3,484c8.06-17.87,22.47-26.82,42.16-26.18,36.27,1.16,72.59,1.87,108.79,4.25,32,2.11,64.13,5.06,95.89,9.71,63.72,9.33,127.29,19.69,190.8,30.37q71.88,12.07,143.42,26.06C714,540.79,778.82,553,843.1,567.34c93,20.83,185.62,43.48,278.38,65.41,123.06,29.1,245.13,62,366.81,96.27C1626.5,768,1762.87,812.62,1897,864c29.47,11.29,57.8,24.75,83.44,43.43,7.64,5.57,14.63,11.59,17.85,20.91.23.66,1.13,1.09,1.72,1.62Zm-401.86-31.61.09-1.64c3.12.21,6.27.23,9.35.67,10.06,1.43,20.06,3.21,30.13,4.49,48.88,6.18,97.76,12.39,146.67,18.31,47,5.69,94.11,9.56,141.5,8.24,14.31-.4,28.6-1.39,42.9-2.09,4.1-.2,5.28-1.83,3.4-5.77-4-8.51-9.67-15.41-18.08-20-11.25-6.15-22.29-12.67-33.51-18.85-28.26-15.59-56.08-32.18-86.78-42.68-70.8-24.2-141.57-48.53-212.68-71.82-53.57-17.55-107.16-35.37-161.58-49.9-120.86-32.27-242.11-63.13-363.47-93.49-117.67-29.43-235.69-57.46-354.64-81.34-53.84-10.81-107.7-21.56-161.75-31.25-51.59-9.25-103.36-17.6-155.19-25.4-46.41-7-93-12.82-139.54-18.9-22.45-2.93-45-5.09-67.47-7.88-25.66-3.19-51.29-5.87-77.14-2.11a162.42,162.42,0,0,0-43,12.29c-4.31,1.92-4.47,3.26-.72,6.13,5,3.84,9.78,8.26,15.32,11.17,25.48,13.36,50.6,27.68,76.95,39.11,79.54,34.49,160.64,64.93,243.87,89.54,11.91,3.52,23.42,8.38,35,12.85,1.33.51,2.07,2.52,3.09,3.84-1.64.23-3.46,1-4.9.59-10.19-3.05-20.29-6.42-30.45-9.58-86-26.72-171.43-54.84-254.15-90.7a867.27,867.27,0,0,1-91.6-46.54c-7.07-4.12-7.22-3.66-11.49,3-8.93,14-13,29.45-15.23,45.54Q51.6,633.78,40.49,715.42a149.57,149.57,0,0,0,.72,44.8c3.92,23.33,18.06,38.61,38.93,47.79C114.23,823,148,839,183,851.56c68.89,24.63,138.09,48.58,208,70.17,83.72,25.87,168.21,49.32,252.54,73.19,103.28,29.23,207.71,54,312.33,77.92,44.43,10.16,88.58,21.67,133.22,30.82,116.21,23.84,232.6,46.81,349,69.89q47.24,9.36,94.74,17.36c36.92,6.24,73.89,12.31,111,17.49,43.52,6.08,87.1,11.94,130.8,16.34,28.79,2.89,57.86,2.78,86.78,4.49,23.94,1.42,42.49-8.7,58.06-25.71,5.3-5.79,8.1-12.88,9.49-20.58.77-4.25,1.73-8.47,2.81-12.65,17.62-68.31,35.6-136.54,47.59-206.15.75-4.33-.48-5.16-4.41-5.24-24.14-.48-48.28-1.28-72.41-1.75-48.89-.94-97.34-6.88-145.62-13.82-45.11-6.5-90-14.88-134.92-22.49C1614,919.5,1606.06,917.85,1598.14,916.35Z"/><path class="cls-1" d="M1598.14,916.35c7.92,1.5,15.83,3.15,23.78,4.49,45,7.61,89.81,16,134.92,22.49,48.28,6.94,96.73,12.88,145.62,13.82,24.13.47,48.27,1.27,72.41,1.75,3.93.08,5.16.91,4.41,5.24-12,69.61-30,137.84-47.59,206.15-1.08,4.18-2,8.4-2.81,12.65-1.39,7.7-4.19,14.79-9.49,20.58-15.57,17-34.12,27.13-58.06,25.71-28.92-1.71-58-1.6-86.78-4.49-43.7-4.4-87.28-10.26-130.8-16.34-37.08-5.18-74-11.25-111-17.49q-47.49-8-94.74-17.36c-116.37-23.08-232.76-46-349-69.89-44.64-9.15-88.79-20.66-133.22-30.82-104.62-23.94-209.05-48.69-312.33-77.92C559.19,971.05,474.7,947.6,391,921.73c-69.89-21.59-139.09-45.54-208-70.17C148,839,114.23,823,80.14,808c-20.87-9.18-35-24.46-38.93-47.79a149.57,149.57,0,0,1-.72-44.8q11-81.66,22.53-163.24c2.25-16.09,6.3-31.58,15.23-45.54,4.27-6.67,4.42-7.13,11.49-3a867.27,867.27,0,0,0,91.6,46.54c82.72,35.86,168.18,64,254.15,90.7,10.16,3.16,20.26,6.53,30.45,9.58,1.44.44,3.26-.36,4.9-.59-1-1.32-1.76-3.33-3.09-3.84-11.61-4.47-23.12-9.33-35-12.85-83.23-24.61-164.33-55-243.87-89.54-26.35-11.43-51.47-25.75-76.95-39.11-5.54-2.91-10.3-7.33-15.32-11.17-3.75-2.87-3.59-4.21.72-6.13a162.42,162.42,0,0,1,43.05-12.29c25.85-3.76,51.48-1.08,77.14,2.11,22.47,2.79,45,4.95,67.47,7.88,46.54,6.08,93.13,11.92,139.54,18.9,51.83,7.8,103.6,16.15,155.19,25.4,54,9.69,107.91,20.44,161.75,31.25,118.95,23.88,237,51.91,354.64,81.34,121.36,30.36,242.61,61.22,363.47,93.49,54.42,14.53,108,32.35,161.58,49.9,71.11,23.29,141.88,47.62,212.68,71.82,30.7,10.5,58.52,27.09,86.78,42.68,11.22,6.18,22.26,12.7,33.51,18.85,8.41,4.6,14,11.5,18.08,20,1.88,3.94.7,5.57-3.4,5.77-14.3.7-28.59,1.69-42.9,2.09-47.39,1.32-94.51-2.55-141.5-8.24-48.91-5.92-97.79-12.13-146.67-18.31-10.07-1.28-20.07-3.06-30.13-4.49-3.08-.44-6.23-.46-9.35-.67ZM721.4,717.23c-2.73-1.37-5.39-3.27-8.34-4.11-29.92-8.52-59.88-16.86-89.82-25.26-13.62-3.82-27.19-7.77-40.86-11.38-1.51-.39-3.51,1.12-5.29,1.75,1,1.67,1.66,3.6,3,4.92,1,1,2.71,1.16,4.13,1.6,9.85,3,19.64,6.32,29.58,9,33.38,9.1,66.8,18,100.22,27C716.52,721.41,719.31,722.43,721.4,717.23Zm-157.09-38,.46-1.55c-9-9.14-32-17.35-44.4-15.67-2,.28-4,1.44-6,2.2l.21,1.46Z"/><path d="M721.4,717.23c-2.09,5.2-4.88,4.18-7.41,3.5-33.42-8.94-66.84-17.85-100.22-27-9.94-2.71-19.73-6-29.58-9-1.42-.44-3.17-.64-4.13-1.6-1.31-1.32-2-3.25-3-4.92,1.78-.63,3.78-2.14,5.29-1.75,13.67,3.61,27.24,7.56,40.86,11.38,29.94,8.4,59.9,16.74,89.82,25.26C716,714,718.67,715.86,721.4,717.23Z"/><path d="M564.31,679.28,514.6,665.72l-.21-1.46c2-.76,3.93-1.92,6-2.2,12.44-1.68,35.44,6.53,44.4,15.67Z"/></g></g></svg>