<svg xmlns="http://www.w3.org/2000/svg" viewBox="0 0 2000.35 1085.37"><defs><style>.cls-1{fill:#fff;}</style></defs><g id="Layer_2" data-name="Layer 2"><g id="Layer_1-2" data-name="Layer 1"><path d="M207.26,419.54c-.8-1.91-2.21-2-3.36-2.39-12.4-4.27-24.84-8.44-37.22-12.77q-20.37-7.12-40.66-14.49c-7.81-2.85-15.63-5.72-23.21-9.12-7.86-3.53-15.53-7.53-23.12-11.64-15.64-8.45-30.29-18.49-45-28.39-4.25-2.85-8.47-5.74-12.61-8.75a26.42,26.42,0,0,1-10.29-14.05,39.53,39.53,0,0,1-1.58-17.48c2.37-15.18,5.59-30.18,8.58-45.23q16.5-82.8,33.1-165.58c2.6-13,5.1-26.05,7.83-39a114.36,114.36,0,0,1,7.17-22.85c2.8-6.32,6.18-12.3,11.31-17.09C85.48,3.86,94.1.09,104.15,0,116.47,0,128.79,0,141.1,0a17.76,17.76,0,0,1,3.35.13c5.23,1.07,10.52.68,15.79.84,3.34.11,6.68.46,10,.69,1.44.09,2.87.2,4.31.22,4.63.07,9.27-.11,13.87.8a25.31,25.31,0,0,0,4.78.17,65.54,65.54,0,0,1,11.95.73,32.33,32.33,0,0,0,5.75.23c3.83,0,7.67-.08,11.46.74a27,27,0,0,0,3.83.22l10.5.76c.48,0,.95.1,1.43.13,6.06.36,12.12.63,18.17,1.1,5.09.4,10.16,1,15.24,1.56,7,.75,14,1.44,21,2.29,7.61.93,15.21,2,22.81,3q12.35,1.71,24.67,3.51,17.08,2.53,34.14,5.16,20.13,3.15,40.25,6.44Q448.46,34.36,482.52,40q29.57,5,59.1,10.1c18.42,3.25,36.81,6.69,55.21,10.06,19.66,3.6,39.32,7.17,59,10.84,12.26,2.29,24.5,4.72,36.74,7.12,22.12,4.35,44.27,8.61,66.36,13.12,18.64,3.81,37.23,7.89,55.83,11.89q21.59,4.65,43.13,9.4c12.17,2.71,24.31,5.56,36.47,8.34q21.75,5,43.49,10c11.07,2.56,22.11,5.18,33.17,7.77L1032.16,153c5.92,1.39,11.84,2.77,17.75,4.19q17.71,4.28,35.43,8.6c20.67,5,41.37,9.93,62,15q59.4,14.65,118.76,29.48c15.82,3.95,31.59,8.13,47.36,12.31q35,9.27,70,18.71,31,8.41,62,17.14,29.34,8.2,58.62,16.61,27.89,8,55.7,16.32c12.11,3.6,24.18,7.32,36.25,11.07q30.69,9.52,61.35,19.17c9.77,3.07,19.49,6.25,29.23,9.41,13.84,4.5,27.7,8.95,41.5,13.55q18,6,35.86,12.27c14.49,5.07,29,10.15,43.39,15.44q25,9.18,49.83,18.75,25.08,9.63,50,19.62c12.32,4.93,24.65,9.87,36.73,15.34,6.82,3.09,13.25,7.08,19.67,11a191.67,191.67,0,0,1,23.29,16.87,44.11,44.11,0,0,1,10,10.94,24,24,0,0,1,3.45,11.81,96.39,96.39,0,0,1-3.4,28.94c-4.46,16.36-7.71,33-11.27,49.56-2.72,12.66-5.64,25.29-8.67,37.88-6.18,25.64-12.28,51.3-18.8,76.86-6.63,26-13.64,52-20.66,77.89a82.26,82.26,0,0,1-10.87,23.93,42.83,42.83,0,0,1-8,8.9c-3.34,2.88-7.22,4.77-11.81,4.49a45.73,45.73,0,0,1-8.55-.85c-12.36-3.2-22.11,1.21-29.81,10.51-8.86,10.71-17.14,21.9-25.87,32.72-4.91,6.08-10.33,11.75-15.31,17.78-5.2,6.31-11.1,11.93-16.84,17.72-8,8-16.63,15.4-25.3,22.71-8.45,7.12-17,14.06-26.07,20.36Q1742,917.86,1724.33,929c-19.22,12.16-39.64,22.14-60.11,32-12,5.74-24.25,10.78-36.41,16.07-17.31,7.54-35,14.23-52.7,20.65-14.13,5.1-28.43,9.78-42.75,14.32-14,4.45-28.1,8.73-42.28,12.65q-22.18,6.15-44.62,11.42c-22.1,5.23-44.3,10-66.68,13.91-13.7,2.4-27.4,4.82-41.13,7-9.93,1.61-19.92,2.91-29.89,4.3-8.86,1.23-17.73,2.44-26.6,3.55-6.82.85-13.66,1.5-20.48,2.26-4.13.46-8.25,1-12.37,1.45-4.61.51-9.22.94-13.82,1.4-3.34.33-6.68.64-10,1q-7.63.78-15.24,1.6c-.64.06-1.27.17-1.91.21-5.58.37-11.16.65-16.73,1.11-5.41.44-10.8,1.07-16.2,1.59-1.43.13-2.87.14-4.31.25-2.54.19-5.08.41-7.63.63-1.11.09-2.22.28-3.34.29-3.84,0-7.64.37-11.47.78-6.5.68-13.06.8-19.59,1.19-2.23.14-4.46.38-6.68.59-.64.06-1.27.24-1.9.24-5.28,0-10.52.46-15.78,1-4.28.41-8.59.43-12.9.85-7.3.72-14.66.8-22,1.19-2.71.15-5.41.43-8.12.62-1.91.13-3.82.27-5.74.31-5,.09-9.9-.15-14.83.79a35.29,35.29,0,0,1-5.74.18c-6.23.13-12.47-.36-18.66.83a22.92,22.92,0,0,1-4.31.12q-48.7,0-97.42,0c-2.54,0-5.09-.38-7.63-.57-1.76-.12-3.51-.29-5.26-.31-4.32-.06-8.64,0-13-.08-3-.08-6-.45-9.07-.63-2.23-.14-4.47-.23-6.7-.28-4.79-.09-9.6.21-14.35-.77a22.06,22.06,0,0,0-4.31-.18c-4.31-.06-8.63.13-12.9-.78a19.49,19.49,0,0,0-3.83-.18c-4.15-.06-8.31.11-12.43-.78a18.65,18.65,0,0,0-3.82-.18,58,58,0,0,1-11.47-.77,34,34,0,0,0-4.3-.21c-3.19-.22-6.37-.47-9.55-.71-.32,0-.63-.09-.95-.11l-18.65-1.11c-1.59-.1-3.18-.28-4.77-.41l-6.2-.53-7.16-.61c-.95-.08-1.9-.22-2.86-.31-6.83-.6-13.67-1.22-20.51-1.8-4.77-.4-9.55-.72-14.32-1.16-4.61-.43-9.21-1-13.81-1.47-3.65-.4-7.3-.85-10.94-1.29-10.15-1.23-20.31-2.37-30.44-3.71q-22.34-2.94-44.64-6.13c-8.39-1.2-16.74-2.62-25.11-4-11-1.79-22.12-3.43-33.12-5.45-17.3-3.18-34.59-6.41-51.8-10q-21.83-4.59-43.44-10.15c-18.28-4.68-36.5-9.61-54.49-15.33-14.47-4.6-29-8.95-43.46-13.72q-17.75-5.87-35.26-12.49c-12.12-4.57-24.11-9.47-36.09-14.38q-10-4.11-19.73-8.76c-12.56-6-25-12.13-37.54-18.23a516.19,516.19,0,0,1-47.75-26.58c-12.2-7.64-24.32-15.41-36.19-23.54-11.21-7.67-22.2-15.69-33-23.94-8.37-6.39-16.37-13.28-24.38-20.13q-9.47-8.1-18.51-16.66c-7.21-6.8-13.59-14.4-20.14-21.83C54.44,808.56,49,801.86,44,794.86a242.91,242.91,0,0,1-20.29-32.52,232.36,232.36,0,0,1-13.62-32.21,202.1,202.1,0,0,1-7.88-34.07c-.71-4.89-.67-9.9-1.44-14.78a74.11,74.11,0,0,1-.65-14.34c.15-4.3.6-8.6,1.13-12.88.75-6,1.55-12,2.58-18A168.78,168.78,0,0,1,11,609.22a198.5,198.5,0,0,1,8.81-20.74,168.18,168.18,0,0,1,9.54-17.17c5.47-8.65,11-17.27,17.06-25.51,5.39-7.32,11.32-14.24,17.42-21a203.19,203.19,0,0,1,14.92-15.56c8-7.14,15.86-14.35,24.38-20.87,10.17-7.77,20.57-15.22,31.27-22.22,11.37-7.43,23-14.55,34.44-21.81q10.35-6.52,20.68-13.07,7.08-4.51,14.11-9.09C204.81,421.38,205.93,420.5,207.26,419.54Zm1392.18,38.93c1.29-.68,2-1.29,2.63-1.34a26.86,26.86,0,0,1,5.23.1c5.54.75,11.06,1.67,16.6,2.46q12.33,1.77,24.68,3.45c6.18.83,12.37,1.55,18.55,2.34s12.66,1.68,19,2.48c6.18.79,12.37,1.52,18.56,2.26s12.7,1.43,19,2.22c8.87,1.11,17.73,2.35,26.61,3.44,9.2,1.12,18.41,2.1,27.61,3.2,6.66.79,13.31,1.7,20,2.51,3.33.41,6.67.72,10,1.06,5.56.57,11.12,1.14,16.68,1.67,4.61.43,9.22.89,13.84,1.21,6.37.43,12.75.74,19.12,1.11.48,0,1,.13,1.43.17,3,.23,6,.53,9.07.65,3.35.15,6.77-.23,10.06.26a93.43,93.43,0,0,0,13.87.71q12.48,0,25,0a23.87,23.87,0,0,0,4.79-.21c4.12-.84,8.27-.67,12.43-.72s8.36.23,12.46-.28a105.55,105.55,0,0,1,12.43-.68c2.4,0,4.8.06,7.19-.1a16.23,16.23,0,0,0,4.19-.89,2.47,2.47,0,0,0,1.47-3.15,7,7,0,0,0-.46-1.36c-3.61-7.9-8.9-14.43-16.39-18.88-8.11-4.81-16.42-9.29-24.65-13.88-11.32-6.3-22.57-12.71-34-18.79-12-6.39-24.13-12.51-36.27-18.64a102.65,102.65,0,0,0-11-4.78q-19.38-7.1-38.83-13.93-23.31-8.2-46.68-16.2c-15.58-5.36-31.16-10.72-46.79-15.91q-52.14-17.32-104.34-34.48c-16-5.25-31.9-10.5-47.89-15.62s-32-10.23-48.07-15q-25.27-7.56-50.73-14.52c-19-5.23-38-10.21-57-15.24q-27.82-7.37-55.68-14.63-25.77-6.74-51.55-13.37-36.48-9.39-73-18.73l-43.23-11q-23.25-5.94-46.5-11.85-21.63-5.48-43.29-10.84-47.27-11.73-94.55-23.38c-21-5.12-42-10.06-63-15.05-10.73-2.55-21.46-5.12-32.23-7.53-21.54-4.82-43.07-9.64-64.65-14.27q-42-9-84-17.75c-24-4.92-48-9.54-72-14.26q-16.23-3.19-32.49-6.28-33.93-6.45-67.88-12.82-22.63-4.2-45.32-8.1c-16.08-2.74-32.18-5.28-48.27-7.93C484.57,56.2,478,55,471.33,54q-27.49-4.17-55-8.17Q390.22,42,364.1,38.45c-12.82-1.76-25.66-3.37-38.49-5.06-9.35-1.24-18.69-2.51-28-3.72q-17.82-2.3-35.66-4.52c-3-.38-6-.72-9-1.06-6.83-.75-13.66-1.46-20.48-2.25-7.46-.85-14.9-1.79-22.36-2.65-3.65-.43-7.31-.74-11-1.14-7.94-.88-15.86-1.85-23.88-1.69-3.51.07-7,.1-10.55,0a139,139,0,0,0-25.77,2,170,170,0,0,0-38.69,11,22.55,22.55,0,0,0-3.76,2.07,1.82,1.82,0,0,0-.29,2.58,8.59,8.59,0,0,0,1.27,1.42,96.37,96.37,0,0,0,21.35,14.49c6.19,3,12.19,6.36,18.25,9.6,10.71,5.71,21.27,11.73,32.39,16.67S191.75,86.44,203,91.4q18,7.91,36.2,15.36c21.31,8.74,42.73,17.19,64.39,25,16.84,6.09,33.64,12.32,50.6,18.06,35.14,11.9,70.38,23.51,105.57,35.26a50.83,50.83,0,0,1,6.26,2.4,15.1,15.1,0,0,1,3.8,2.81,2.51,2.51,0,0,1,.23,2.15c-.12.4-1.05.82-1.56.76a41.6,41.6,0,0,1-6.61-1.07c-4.77-1.33-9.49-2.87-14.22-4.36q-20.34-6.45-40.69-12.94c-18.73-6-37.48-11.94-56.17-18.09-26.43-8.69-52.83-17.48-78.91-27.21-12.73-4.75-25.49-9.45-38.16-14.37-10.73-4.16-21.38-8.53-32-13-8.11-3.38-16.16-6.92-24.17-10.55-9.32-4.23-18.56-8.62-27.82-13-1.45-.67-2.86-1.44-4.26-2.2-2.53-1.37-5-2.8-7.58-4.13-8.5-4.45-17.05-8.81-25.52-13.3-5.64-3-11.17-6.21-16.8-9.25q-4.42-2.4-9-4.51c-2.65-1.23-4-.83-5.86,1.4a10.84,10.84,0,0,0-1.08,1.59c-1.94,3.49-4.06,6.9-5.73,10.52a70.86,70.86,0,0,0-4.62,12.06c-1.94,7.75-3.54,15.59-4.91,23.46-2,11.33-3.72,22.71-5.44,34.09-1.49,10-2.83,19.93-4.21,29.9S52,178.26,50.59,188.23c-1.17,8.55-2.37,17.09-3.54,25.64-.88,6.49-1.78,13-2.57,19.47-.82,6.66-1.56,13.33-2.26,20-.44,4.28-.53,8.62-1.18,12.87a72.26,72.26,0,0,0-.69,11c0,4.47.07,8.95,0,13.43A43.72,43.72,0,0,0,41.54,302c1.16,4.81,2.13,9.66,4.29,14.2a70.71,70.71,0,0,0,29.88,31.44c8.35,4.36,17,8.22,25.54,12.15,5.38,2.46,10.85,4.72,16.31,7,13.59,5.64,27.09,11.49,40.82,16.78,20,7.7,40.1,15.1,60.24,22.39,17.74,6.43,35.53,12.73,53.42,18.74,40,13.46,80,27,120.35,39.51q13.74,4.27,27.5,8.47c12.25,3.71,24.51,7.36,36.76,11,10.26,3.08,20.5,6.24,30.79,9.21q28.35,8.18,56.75,16.16,27,7.64,54,15.15,34,9.4,68,18.66c20.69,5.59,41.36,11.23,62.14,16.46,33.35,8.38,66.77,16.49,100.18,24.61,22.07,5.37,44.18,10.56,66.26,15.85q27.06,6.49,54.1,13.06c19.9,4.8,39.79,9.65,59.7,14.42q14.46,3.46,29,6.71,21.54,4.8,43.12,9.4c18.61,4,37.2,8.06,55.84,11.9,21.3,4.38,42.64,8.56,64,12.8q109.88,21.81,219.76,43.59c8.63,1.71,17.27,3.38,25.92,4.95q26.19,4.74,52.4,9.37c15,2.66,29.9,5.39,44.87,7.94q30.74,5.24,61.5,10.24c10.88,1.78,21.78,3.52,32.69,5.1,12.65,1.84,25.33,3.49,38,5.21,8.86,1.2,17.73,2.41,26.6,3.56q12.59,1.63,25.2,3.14c7.77.93,15.55,1.78,23.33,2.64q6.42.71,12.86,1.34c5.24.51,10.48,1.06,15.73,1.49,5.41.45,10.87.49,16.24,1.22a105.18,105.18,0,0,0,13.38.74,23.76,23.76,0,0,1,4.31.12c6.35,1.23,12.76.69,19.15.84a34.25,34.25,0,0,1,5.74.23,63,63,0,0,0,11.47.71c4.79.05,9.58-.15,14.35.75a20.59,20.59,0,0,0,5.24-.2c1.43-.11,2.85-.45,4.28-.5a42.22,42.22,0,0,0,13.52-3A80.71,80.71,0,0,0,1915.83,749a43.19,43.19,0,0,0,11.62-20.6c2-8.24,3.72-16.54,5.75-24.77q14.65-59.39,29.41-118.74c1.83-7.45,3.46-15,5-22.48,3.28-16.3,6.43-32.63,9.63-48.94.46-2.36,1-4.7,1.34-7.07a3.41,3.41,0,0,0-3-4.18,27.91,27.91,0,0,0-4.3-.29c-3.51-.08-7.08.23-10.54-.26a90.88,90.88,0,0,0-12.43-.69c-5.28,0-10.56,0-15.84,0-1.91,0-3.82-.23-5.73-.37-2.39-.17-4.77-.49-7.16-.51-10.24-.07-20.48,0-30.71-.07-1.76,0-3.52-.1-5.27-.21-3.35-.22-6.68-.52-10-.71-6.69-.4-13.39-.75-20.08-1.12-.48,0-1-.16-1.43-.21-2.22-.21-4.45-.41-6.67-.6-4.93-.41-9.88-.7-14.8-1.25-6.66-.73-13.31-1.61-20-2.5-10.46-1.39-20.92-2.73-31.35-4.28-12-1.78-24-3.71-36-5.66q-27.45-4.47-54.89-9.05c-7.88-1.31-15.75-2.75-23.63-4.06-19.87-3.31-39.75-6.57-59.62-9.91A11.88,11.88,0,0,1,1599.44,458.47Z"/><path class="cls-1" d="M1599.44,458.47a11.88,11.88,0,0,0,5.72,1.95c19.87,3.34,39.75,6.6,59.62,9.91,7.88,1.31,15.75,2.75,23.63,4.06q27.43,4.56,54.89,9.05c12,1.95,24,3.88,36,5.66,10.43,1.55,20.89,2.89,31.35,4.28,6.65.89,13.3,1.77,20,2.5,4.92.55,9.87.84,14.8,1.25,2.22.19,4.45.39,6.67.6.48,0,1,.18,1.43.21,6.69.37,13.39.72,20.08,1.12,3.35.19,6.68.49,10,.71,1.75.11,3.51.21,5.27.21,10.23,0,20.47,0,30.71.07,2.39,0,4.77.34,7.16.51,1.91.14,3.82.35,5.73.37,5.28.06,10.56,0,15.84,0a90.88,90.88,0,0,1,12.43.69c3.46.49,7,.18,10.54.26a27.91,27.91,0,0,1,4.3.29,3.41,3.41,0,0,1,3,4.18c-.34,2.37-.88,4.71-1.34,7.07-3.2,16.31-6.35,32.64-9.63,48.94-1.52,7.52-3.15,15-5,22.48Q1948,644.27,1933.2,703.62c-2,8.23-3.77,16.53-5.75,24.77a43.19,43.19,0,0,1-11.62,20.6,80.71,80.71,0,0,1-28.76,18.61,42.22,42.22,0,0,1-13.52,3c-1.43,0-2.85.39-4.28.5a20.59,20.59,0,0,1-5.24.2c-4.77-.9-9.56-.7-14.35-.75a63,63,0,0,1-11.47-.71,34.25,34.25,0,0,0-5.74-.23c-6.39-.15-12.8.39-19.15-.84a23.76,23.76,0,0,0-4.31-.12,105.18,105.18,0,0,1-13.38-.74c-5.37-.73-10.83-.77-16.24-1.22-5.25-.43-10.49-1-15.73-1.49q-6.44-.65-12.86-1.34c-7.78-.86-15.56-1.71-23.33-2.64q-12.6-1.5-25.2-3.14c-8.87-1.15-17.74-2.36-26.6-3.56-12.67-1.72-25.35-3.37-38-5.21-10.91-1.58-21.81-3.32-32.69-5.1q-30.76-5-61.5-10.24c-15-2.55-29.91-5.28-44.87-7.94q-26.2-4.66-52.4-9.37c-8.65-1.57-17.29-3.24-25.92-4.95q-109.89-21.78-219.76-43.59c-21.34-4.24-42.68-8.42-64-12.8-18.64-3.84-37.23-7.9-55.84-11.9q-21.57-4.63-43.12-9.4-14.52-3.22-29-6.71c-19.91-4.77-39.8-9.62-59.7-14.42q-27-6.54-54.1-13.06c-22.08-5.29-44.19-10.48-66.26-15.85-33.41-8.12-66.83-16.23-100.18-24.61-20.78-5.23-41.45-10.87-62.14-16.46q-34-9.21-68-18.66-27-7.49-54-15.15-28.4-8-56.75-16.16c-10.29-3-20.53-6.13-30.79-9.21-12.25-3.67-24.51-7.32-36.76-11q-13.77-4.17-27.5-8.47c-40.32-12.55-80.33-26.05-120.35-39.51-17.89-6-35.68-12.31-53.42-18.74-20.14-7.29-40.25-14.69-60.24-22.39-13.73-5.29-27.23-11.14-40.82-16.78-5.46-2.27-10.93-4.53-16.31-7-8.57-3.93-17.19-7.79-25.54-12.15a70.71,70.71,0,0,1-29.88-31.44c-2.16-4.54-3.13-9.39-4.29-14.2a43.72,43.72,0,0,1-1.21-11.41c.09-4.48,0-9,0-13.43a72.26,72.26,0,0,1,.69-11c.65-4.25.74-8.59,1.18-12.87.7-6.67,1.44-13.34,2.26-20,.79-6.5,1.69-13,2.57-19.47,1.17-8.55,2.37-17.09,3.54-25.64q2.07-15,4.13-29.91c1.38-10,2.72-19.95,4.21-29.9,1.72-11.38,3.45-22.76,5.44-34.09,1.37-7.87,3-15.71,4.91-23.46A70.86,70.86,0,0,1,73.9,58.81c1.67-3.62,3.79-7,5.73-10.52a10.84,10.84,0,0,1,1.08-1.59c1.83-2.23,3.21-2.63,5.86-1.4q4.58,2.1,9,4.51c5.63,3,11.16,6.25,16.8,9.25,8.47,4.49,17,8.85,25.52,13.3,2.55,1.33,5,2.76,7.58,4.13,1.4.76,2.81,1.53,4.26,2.2,9.26,4.34,18.5,8.73,27.82,13,8,3.63,16.06,7.17,24.17,10.55,10.63,4.44,21.28,8.81,32,13,12.67,4.92,25.43,9.62,38.16,14.37,26.08,9.73,52.48,18.52,78.91,27.21,18.69,6.15,37.44,12.09,56.17,18.09q20.34,6.51,40.69,12.94c4.73,1.49,9.45,3,14.22,4.36a41.6,41.6,0,0,0,6.61,1.07c.51.06,1.44-.36,1.56-.76a2.51,2.51,0,0,0-.23-2.15,15.1,15.1,0,0,0-3.8-2.81,50.83,50.83,0,0,0-6.26-2.4c-35.19-11.75-70.43-23.36-105.57-35.26-17-5.74-33.76-12-50.6-18.06-21.66-7.82-43.08-16.27-64.39-25Q221,99.31,203,91.4c-11.26-5-22.36-10.29-33.61-15.28s-21.68-11-32.39-16.67c-6.06-3.24-12.06-6.61-18.25-9.6A96.37,96.37,0,0,1,97.41,35.36a8.59,8.59,0,0,1-1.27-1.42,1.82,1.82,0,0,1,.29-2.58,22.55,22.55,0,0,1,3.76-2.07,170,170,0,0,1,38.69-11,139,139,0,0,1,25.77-2c3.51.11,7,.08,10.55,0,8-.16,15.94.81,23.88,1.69,3.65.4,7.31.71,11,1.14,7.46.86,14.9,1.8,22.36,2.65,6.82.79,13.65,1.5,20.48,2.25,3,.34,6,.68,9,1.06q17.83,2.25,35.66,4.52c9.34,1.21,18.68,2.48,28,3.72,12.83,1.69,25.67,3.3,38.49,5.06Q390.22,42,416.32,45.8q27.51,4,55,8.17c6.64,1,13.24,2.23,19.87,3.32,16.09,2.65,32.19,5.19,48.27,7.93q22.68,3.89,45.32,8.1,34,6.32,67.88,12.82,16.26,3.09,32.49,6.28c24,4.72,48,9.34,72,14.26q42.06,8.64,84,17.75c21.58,4.63,43.11,9.45,64.65,14.27,10.77,2.41,21.5,5,32.23,7.53,21,5,42,9.93,63,15.05q47.3,11.58,94.55,23.38,21.66,5.37,43.29,10.84,23.26,5.88,46.5,11.85l43.23,11q36.49,9.36,73,18.73,25.79,6.65,51.55,13.37,27.84,7.26,55.68,14.63c19,5,38,10,57,15.24q25.44,7,50.73,14.52c16.08,4.81,32.08,9.92,48.07,15s31.94,10.37,47.89,15.62q52.18,17.2,104.34,34.48c15.63,5.19,31.21,10.55,46.79,15.91s31.14,10.73,46.68,16.2q19.45,6.84,38.83,13.93a102.65,102.65,0,0,1,11,4.78c12.14,6.13,24.28,12.25,36.27,18.64,11.42,6.08,22.67,12.49,34,18.79,8.23,4.59,16.54,9.07,24.65,13.88,7.49,4.45,12.78,11,16.39,18.88a7,7,0,0,1,.46,1.36,2.47,2.47,0,0,1-1.47,3.15,16.23,16.23,0,0,1-4.19.89c-2.39.16-4.79.09-7.19.1a105.55,105.55,0,0,0-12.43.68c-4.1.51-8.3.24-12.46.28s-8.31-.12-12.43.72a23.87,23.87,0,0,1-4.79.21q-12.46,0-25,0a93.43,93.43,0,0,1-13.87-.71c-3.29-.49-6.71-.11-10.06-.26-3-.12-6-.42-9.07-.65-.48,0-1-.14-1.43-.17-6.37-.37-12.75-.68-19.12-1.11-4.62-.32-9.23-.78-13.84-1.21-5.56-.53-11.12-1.1-16.68-1.67-3.34-.34-6.68-.65-10-1.06-6.65-.81-13.3-1.72-20-2.51-9.2-1.1-18.41-2.08-27.61-3.2-8.88-1.09-17.74-2.33-26.61-3.44-6.34-.79-12.7-1.47-19-2.22s-12.38-1.47-18.56-2.26c-6.34-.8-12.67-1.67-19-2.48s-12.37-1.51-18.55-2.34q-12.35-1.67-24.68-3.45c-5.54-.79-11.06-1.71-16.6-2.46a26.86,26.86,0,0,0-5.23-.1C1601.39,457.18,1600.73,457.79,1599.44,458.47Zm-1017-239.81c-1.57.19-2.69.24-3.78.47a2.74,2.74,0,0,0-2.2,2.27,2.43,2.43,0,0,0,1,2.51c2.29,1.73,4.55,3.52,7.38,4.36,3.52,1,7,2.12,10.57,3.13q23.29,6.6,46.6,13.17,20.76,5.82,41.57,11.51c8,2.2,16,4.33,24.08,6.47,2.47.66,5,1.24,7.45,1.83a4.77,4.77,0,0,0,4.47-1.12c2-1.81,2.23-3.95-.38-5.39a49,49,0,0,0-10.68-4.21q-28.62-8-57.25-16-31.84-8.94-63.68-17.92C585.79,219.2,583.88,219,582.42,218.66Zm-16.76,2.71a5.08,5.08,0,0,0-.52-1.57,15.23,15.23,0,0,0-2.34-2.34,65.33,65.33,0,0,0-30-12.88c-1.88-.29-3.83-.23-5.69-.64a15.56,15.56,0,0,0-9.37.84c-1.4.56-3.51.63-3.37,2.72.11,1.72,2,1.78,3.29,2.29a4,4,0,0,0,.46.13Q540,216,561.92,222a6.48,6.48,0,0,0,2.33.33C564.76,222.26,565.21,221.7,565.66,221.37Z"/><path d="M582.42,218.66c1.46.29,3.37.54,5.2,1.06q31.85,8.92,63.68,17.92,28.62,8,57.25,16a49,49,0,0,1,10.68,4.21c2.61,1.44,2.41,3.58.38,5.39a4.77,4.77,0,0,1-4.47,1.12c-2.49-.59-5-1.17-7.45-1.83-8-2.14-16.06-4.27-24.08-6.47q-20.79-5.7-41.57-11.51-23.32-6.54-46.6-13.17c-3.53-1-7.05-2.09-10.57-3.13-2.83-.84-5.09-2.63-7.38-4.36a2.43,2.43,0,0,1-1-2.51,2.74,2.74,0,0,1,2.2-2.27C579.73,218.9,580.85,218.85,582.42,218.66Z"/><path d="M565.66,221.37c-.45.33-.9.89-1.41.94a6.48,6.48,0,0,1-2.33-.33q-21.9-6-43.79-12.06a4,4,0,0,1-.46-.13c-1.29-.51-3.18-.57-3.29-2.29-.14-2.09,2-2.16,3.37-2.72a15.56,15.56,0,0,1,9.37-.84c1.86.41,3.81.35,5.69.64a65.33,65.33,0,0,1,30,12.88,15.23,15.23,0,0,1,2.34,2.34A5.08,5.08,0,0,1,565.66,221.37Z"/></g></g></svg>